<mxfile host="65bd71144e">
    <diagram id="8V1as0dggFW01nPwuWQL" name="Page-1">
        <mxGraphModel dx="384" dy="489" grid="1" gridSize="10" guides="1" tooltips="1" connect="1" arrows="1" fold="1" page="1" pageScale="1" pageWidth="850" pageHeight="1100" math="0" shadow="0">
            <root>
                <mxCell id="0"/>
                <mxCell id="1" parent="0"/>
                <mxCell id="2" value="Inyectar" style="edgeStyle=none;html=1;endArrow=none;endFill=0;startArrow=open;startFill=0;rounded=0;dashed=1;" parent="1" source="3" target="10" edge="1">
                    <mxGeometry x="0.1955" y="10" relative="1" as="geometry">
                        <Array as="points">
                            <mxPoint x="590" y="341.46"/>
                        </Array>
                        <mxPoint as="offset"/>
                    </mxGeometry>
                </mxCell>
                <mxCell id="3" value="&lt;p style=&quot;margin:0px;margin-top:4px;text-align:center;&quot;&gt;&amp;lt;&amp;lt;abstract&amp;gt;&amp;gt;&lt;/p&gt;&lt;p style=&quot;margin:0px;margin-top:4px;text-align:center;&quot;&gt;&lt;b&gt;Alimento&lt;/b&gt;&lt;/p&gt;&lt;hr size=&quot;1&quot;&gt;&lt;p style=&quot;margin:0px;margin-left:4px;&quot;&gt;-nombre: String&lt;/p&gt;&lt;hr size=&quot;1&quot;&gt;&lt;p style=&quot;margin:0px;margin-left:4px;&quot;&gt;+gettes/setters(): Type&lt;/p&gt;" style="verticalAlign=top;align=left;overflow=fill;fontSize=12;fontFamily=Helvetica;html=1;" parent="1" vertex="1">
                    <mxGeometry x="510" y="141.46" width="150" height="100" as="geometry"/>
                </mxCell>
                <mxCell id="4" value="&lt;p style=&quot;margin:0px;margin-top:4px;text-align:center;&quot;&gt;&lt;b&gt;Herviboro&lt;/b&gt;&lt;/p&gt;&lt;hr size=&quot;1&quot;&gt;&lt;div style=&quot;height:2px;&quot;&gt;&lt;/div&gt;" style="verticalAlign=top;align=left;overflow=fill;fontSize=12;fontFamily=Helvetica;html=1;" parent="1" vertex="1">
                    <mxGeometry x="740" y="246.45999999999998" width="80" height="60" as="geometry"/>
                </mxCell>
                <mxCell id="5" value="&lt;p style=&quot;margin:0px;margin-top:4px;text-align:center;&quot;&gt;&lt;b&gt;Carnivoro&lt;/b&gt;&lt;/p&gt;&lt;hr size=&quot;1&quot;&gt;&lt;div style=&quot;height:2px;&quot;&gt;&lt;/div&gt;" style="verticalAlign=top;align=left;overflow=fill;fontSize=12;fontFamily=Helvetica;html=1;" parent="1" vertex="1">
                    <mxGeometry x="740" y="153.96" width="80" height="60" as="geometry"/>
                </mxCell>
                <mxCell id="6" value="&lt;p style=&quot;margin:0px;margin-top:4px;text-align:center;&quot;&gt;&lt;b&gt;Omnivoro&lt;/b&gt;&lt;/p&gt;&lt;hr size=&quot;1&quot;&gt;&lt;div style=&quot;height:2px;&quot;&gt;&lt;/div&gt;" style="verticalAlign=top;align=left;overflow=fill;fontSize=12;fontFamily=Helvetica;html=1;" parent="1" vertex="1">
                    <mxGeometry x="740" y="71.46000000000001" width="80" height="60" as="geometry"/>
                </mxCell>
                <mxCell id="7" value="" style="endArrow=block;endFill=0;endSize=12;html=1;entryX=1.002;entryY=0.36;entryDx=0;entryDy=0;entryPerimeter=0;exitX=0;exitY=0.25;exitDx=0;exitDy=0;" parent="1" source="6" target="3" edge="1">
                    <mxGeometry width="160" relative="1" as="geometry">
                        <mxPoint x="660" y="91.46000000000001" as="sourcePoint"/>
                        <mxPoint x="820" y="91.46000000000001" as="targetPoint"/>
                    </mxGeometry>
                </mxCell>
                <mxCell id="8" value="" style="endArrow=block;endFill=0;endSize=12;html=1;entryX=1;entryY=0.5;entryDx=0;entryDy=0;exitX=0;exitY=0.5;exitDx=0;exitDy=0;" parent="1" source="5" target="3" edge="1">
                    <mxGeometry width="160" relative="1" as="geometry">
                        <mxPoint x="750" y="96.46000000000001" as="sourcePoint"/>
                        <mxPoint x="670.24" y="183.85999999999999" as="targetPoint"/>
                    </mxGeometry>
                </mxCell>
                <mxCell id="9" value="" style="endArrow=block;endFill=0;endSize=12;html=1;entryX=0.995;entryY=0.813;entryDx=0;entryDy=0;entryPerimeter=0;" parent="1" source="4" target="3" edge="1">
                    <mxGeometry width="160" relative="1" as="geometry">
                        <mxPoint x="760" y="106.46000000000001" as="sourcePoint"/>
                        <mxPoint x="680.24" y="193.85999999999999" as="targetPoint"/>
                    </mxGeometry>
                </mxCell>
                <mxCell id="10" value="&lt;p style=&quot;margin:0px;margin-top:4px;text-align:center;&quot;&gt;&amp;lt;&amp;lt;abstract&amp;gt;&amp;gt;&lt;/p&gt;&lt;p style=&quot;margin:0px;margin-top:4px;text-align:center;&quot;&gt;&lt;b&gt;GenomaAlimento&lt;/b&gt;&lt;/p&gt;&lt;hr size=&quot;1&quot;&gt;&lt;p style=&quot;margin:0px;margin-left:4px;&quot;&gt;-nombre: String&lt;/p&gt;&lt;hr size=&quot;1&quot;&gt;&lt;p style=&quot;margin:0px;margin-left:4px;&quot;&gt;+gettes/setters(): Type&lt;/p&gt;" style="verticalAlign=top;align=left;overflow=fill;fontSize=12;fontFamily=Helvetica;html=1;" parent="1" vertex="1">
                    <mxGeometry x="520" y="403.96" width="150" height="100" as="geometry"/>
                </mxCell>
                <mxCell id="11" value="&lt;p style=&quot;margin:0px;margin-top:4px;text-align:center;&quot;&gt;&lt;b&gt;XY&lt;/b&gt;&lt;/p&gt;&lt;hr size=&quot;1&quot;&gt;&lt;div style=&quot;height:2px;&quot;&gt;&lt;/div&gt;" style="verticalAlign=top;align=left;overflow=fill;fontSize=12;fontFamily=Helvetica;html=1;" parent="1" vertex="1">
                    <mxGeometry x="745" y="513.96" width="75" height="60" as="geometry"/>
                </mxCell>
                <mxCell id="12" value="&lt;p style=&quot;margin:0px;margin-top:4px;text-align:center;&quot;&gt;&lt;b&gt;XX&lt;/b&gt;&lt;/p&gt;&lt;hr size=&quot;1&quot;&gt;&lt;div style=&quot;height:2px;&quot;&gt;&lt;/div&gt;" style="verticalAlign=top;align=left;overflow=fill;fontSize=12;fontFamily=Helvetica;html=1;" parent="1" vertex="1">
                    <mxGeometry x="750" y="423.96" width="70" height="60" as="geometry"/>
                </mxCell>
                <mxCell id="13" value="&lt;p style=&quot;margin:0px;margin-top:4px;text-align:center;&quot;&gt;&lt;b&gt;X&lt;/b&gt;&lt;/p&gt;&lt;hr size=&quot;1&quot;&gt;&lt;div style=&quot;height:2px;&quot;&gt;&lt;/div&gt;" style="verticalAlign=top;align=left;overflow=fill;fontSize=12;fontFamily=Helvetica;html=1;" parent="1" vertex="1">
                    <mxGeometry x="750" y="343.96" width="70" height="60" as="geometry"/>
                </mxCell>
                <mxCell id="14" value="" style="endArrow=block;endFill=0;endSize=12;html=1;entryX=1.002;entryY=0.36;entryDx=0;entryDy=0;entryPerimeter=0;exitX=0;exitY=0.25;exitDx=0;exitDy=0;" parent="1" source="13" target="10" edge="1">
                    <mxGeometry width="160" relative="1" as="geometry">
                        <mxPoint x="670" y="363.96" as="sourcePoint"/>
                        <mxPoint x="830" y="363.96" as="targetPoint"/>
                    </mxGeometry>
                </mxCell>
                <mxCell id="15" value="" style="endArrow=block;endFill=0;endSize=12;html=1;entryX=1;entryY=0.5;entryDx=0;entryDy=0;exitX=0;exitY=0.5;exitDx=0;exitDy=0;" parent="1" source="12" target="10" edge="1">
                    <mxGeometry width="160" relative="1" as="geometry">
                        <mxPoint x="760" y="368.96" as="sourcePoint"/>
                        <mxPoint x="680.24" y="456.35999999999996" as="targetPoint"/>
                    </mxGeometry>
                </mxCell>
                <mxCell id="16" value="" style="endArrow=block;endFill=0;endSize=12;html=1;entryX=0.995;entryY=0.813;entryDx=0;entryDy=0;entryPerimeter=0;" parent="1" source="11" target="10" edge="1">
                    <mxGeometry width="160" relative="1" as="geometry">
                        <mxPoint x="770" y="378.96" as="sourcePoint"/>
                        <mxPoint x="690.24" y="466.35999999999996" as="targetPoint"/>
                    </mxGeometry>
                </mxCell>
                <mxCell id="17" value="alimento" style="edgeStyle=none;rounded=0;html=1;entryX=0;entryY=0.5;entryDx=0;entryDy=0;startArrow=open;startFill=0;endArrow=none;endFill=0;" parent="1" source="20" target="3" edge="1">
                    <mxGeometry x="0.3457" y="-14" relative="1" as="geometry">
                        <Array as="points"/>
                        <mxPoint as="offset"/>
                    </mxGeometry>
                </mxCell>
                <mxCell id="18" style="edgeStyle=none;rounded=0;html=1;entryX=0.5;entryY=0;entryDx=0;entryDy=0;startArrow=block;startFill=0;endArrow=none;endFill=0;" parent="1" source="20" target="21" edge="1">
                    <mxGeometry relative="1" as="geometry">
                        <Array as="points">
                            <mxPoint x="140" y="205.96"/>
                        </Array>
                    </mxGeometry>
                </mxCell>
                <mxCell id="19" style="edgeStyle=none;rounded=0;html=1;entryX=0.5;entryY=0;entryDx=0;entryDy=0;startArrow=block;startFill=0;endArrow=none;endFill=0;" parent="1" source="20" target="23" edge="1">
                    <mxGeometry relative="1" as="geometry"/>
                </mxCell>
                <mxCell id="20" value="" style="shape=image;verticalLabelPosition=bottom;labelBackgroundColor=default;verticalAlign=top;aspect=fixed;imageAspect=0;image=data:image/png,iVBORw0KGgoAAAANSUhEUgAAAVkAAAECCAYAAABUu6TvAAAAAXNSR0IArs4c6QAAAARnQU1BAACxjwv8YQUAAAAJcEhZcwAADsMAAA7DAcdvqGQAALAMSURBVHhe7L0HYFzHeS18Ftt3gUXvAMHeO0VSItUlq9mW7bjXxI6fS/wSxy1x/rzETpzYcZw4iRPHRY5bJLnIVifVCyn2XkD03nvZxfZd4P/O3B1iSVHNJghQuocc3HunfDN3yplv5s7OWKYEMGHChAkTM4KM1NWECRMmTMwATJI1YcKEiRmESbImTJgwMYMwSdaECRMmZhAmyZowYcLEDOKiry4Ih8OpOxOExWI5e52cnFT3GhkZGWD2mws8TMw2WD9ZD3nVdXbm6qXINf6fg1S0Eq9x1dDpoUO6k2FtpDv9+Xy4XK7U3ezgopNsMplM3ZkgWEFIpucTrM52q9Vq5pmJOQPWV9bHdLK93ME2Npsw18nOMDS5RqNRBINBdXU4HMjMzITT6VQEbMLEXALrrFkvLx5Mkp1BaA11bGwMe/fuRX19PcbHxxXBLl26FNu2bUNJSYnyY8KEidcnTJKdQSQSCfj9fvzyl7/E888/j/nz5yMvL0+RbktLC6644gp89KMfRX5+vqk5mDDxOoVJsjOISCSChx9+WJHse97zHmzZsgUej0fZnzhxAvfccw9uvvlmfPCDH1ST8zabLRXShAkTrxeY6tMMgfNaXV1d2LFjB2666Sa8/e1vV5psUVERKisr8eY3vxnveMc78Mwzz6C1tdXUZE2YeJ3CbNkzAP2xq6GhAXa7XREqNVUSqTb84vmmN70JpaWlOHny5Awul/ndcf6KCBMmTLx2mCQ7AyA50TQ2NqKwsBDZ2dnnLNPSy7r4AYzaLTXZV1rGlUzxHeUmUw/TJDg1bUc5F4EcKZvEb7yLucTMhInfFSbJzgC0VsoPX1yuRUI9X1PlM8mW7rFY7GXXJE4mE0hGg/AHQojG4whP+BEMhYV4p8l2MhnDxMQEEiRGie/3BZMbj0UwPu5HQhH470/cJky8EWGS7AyApErSLC4uxtDQ0ItI1NAOJ9Wa2YGBAbW64KVAfyTTkeZT2Hu4Fv5YHEMNx7H/WD2CcWq1SfEDhIZasHfvUfT5o5i6gOb5WilS9FiExgZwuqYe4ZcIzG7jQk5zcerDhInZgkmyMwDOt5JUly1bppZw1dTUXFBTbW5uRnt7O1asWKHcSajnY5J8ZbFivLcdje29iEwmMDHQgYa2HoTjCSFUI0xkvB9N9W0YDkSVBh0XN16TiaQi4qRowJxSoJ0yQtZn72niMdUZ8J7psAiFOr05WFBVCYfIjyfSwqb8TMp1SmQnJI50e6bJJFoTsw1dJ2cbJsnOEEg2nG+lNnvvvfeiu7vbICYxBDXcX/ziF+qDGElWfxB7ESzUikU7tEzJLYnaIC+SsjbKg9CieMWkspvCWF8r6mtr0dzRIxrvFJKxKCaEiHt7utDa1IguiZ9adFdHG+rrG9E/FkJkYkiIug71Lb2YCEfVNAXJNkYyj01goKsZtbXN6OzqQe/QMMZDMbEPoLejSewlXEOTksM0WkySNTELYPsyRnfGr9Ze6VvHpYC5TnaGoAm1Vojun//5n5GVlXV2NcHg4CCee+45dHZ24gtf+AI2b978kr+vFgVSOCuJ5ufvw1PdPtz5tqsQ2PsIdo8U4PY7rkaJ264IeLR1Px58tgdb77wdBaNN2LX7BYwmbZiMAYuvvQ3XrCjGscd+hsNdQK4vG758J/pq+JCHjOAI4CtAeXEWhns6hSjtuPLWt2Gxow2PH2zHjXfcCXv3HuzcfwaJqSxkxEYw6pqP973nNji7D4t9PeIWOyYDw8iouALvf+ctKHII8c/yb8ZNvPFAzZXEylU9+lvIhUaRlxLWrwpS9yYuIliwLGTOty5cuBB1dXXqV187d+5EdXU1fD4fPvWpT70swRJqukA0w9G2GrQEnFi2fB7inTU43jqAaCyIkZ4etHe2o7VBtNGQE1XzslC/Zy+ildvwtjtvRmlGP06e6Ya3pByB2sMYdi/Dm9/+ZhTF23Di9ChW3HQHbruiGC3HDmK0YCPe9ear4BppQuOoG8VZCbT3j6Mox46m0zWwLrkB7711I5JDLajrnsTqtQuRmAgjd+F6XHvVBszLiqGhpkXiWoTyXKdo1ibJmrj04I969KhwtgmWMKcLZhgs7HXr1uGv/uqv8KEPfUj1tHfeead65s9qf5cdgqi5JuMxRIJhTASDCAVDCEdk6C69dnx8CCNxIdvl85XGWrlkFQpcCYwNB5DhzkJ+USnyMt3IsGYgu6wM5WVFyBQtOze3DMXF+cjxZCLT44bdSnbPgMNuQWCsD6OxLCysqpLOQTqNRYtRnm1FwuJF1YrVqPTFUXPkGE439SGayECGpM+EidkA29tcINZ0mCQ7w2Chk0hzc3MVqVZUVGDlypVqrvZ3qwzcf9aGwsrluO7Gm3HTzTfjTbfcguuuWoMsRwYmozEkp6xwOG1qXtSSIRqlhR++ErBID293OmAVGZyFcMi9zSZVYEqeLJJOSQ41Z1Ik53+ZOs7vJpMxTFqsMgSTDkHSbHc4lEE8gObT+/H0rv3oGJ+EU8jZZqP0uVXJTZiYTZgke4lAstVrZvVkPO9fNYQwz06f8yqk6LDb4CTh2V2wCZHTNcPthRMRjI8EhWyBkH8QgWASTrdTCPRcGZpQ1R+68Z5Q/njl3LIFTlcWHAhjPBCS54RotuOYiEwiERhAzelGTGYtxvU3XIW1CwqlQiXNFbUmTKTBJNlLCGq0JDm9rESvNHhZiJapNEOSorCiRfRQst/ZsGRDRYpCeqKt2vNKUVXsRcfJo6g+cwonj51CwleC8rJsFa8iT6XLTqeDhE3iPyt9Mql+gDA5lUA0kkBm3jxU5E6iofoITp+pxqnaBgyGp0TzFe1WNFurfRKBwRYcP1WHvpGQyJVOZI4N2UyYmC2YJHuJQFLk9ADNqyLXFNSQXejPmVOMeWUF4OjenVeCSrm3y73WPjOcPsyfX4HsrEKsv+Y6LPYO4/DuF9ARzcOWa7ahPNOOnKJKlOZnSRqScIm/heLfyzkCqwPFFZUozHKJHpqB7KIKVJXlw5ddIORcjCwh7jWbNqEo1oZnd51CYMqN/Hw7HLlV2LJ1DTL6q/H8C6cQL1qCLRuWwSWpSqqUmzBhwlzCdYlAYh0ZGVFLtvgBjDtzEa80ZcDiYdh4PCYKp0204Qy1fnVqygK73fiKarjHhda4VpbrbYFELIpINI4Mqx1ujwtcYhuLxuSZMizqRwrUYA3i1+t3rRJWOgHRapU2SshzLDCE9q5hIfdiFHgSaDu1Dwf7M/G2t96CfGdcyU1OUqO1wSbyGIdOmwkTb3SYreASgoRG4nkt/RrDcJrB5XLDbrOquVeHwwmn05jfJXjlUTY2ITaSm4Uk53Qjy+eD1+sWnmS8IsPtlrB2kSdkaLerj1T0b7M5xN6VurfBIbJcbhdcHg8cdocQZxRttcexf88hnDx+BDV9ESxcvBSFHkgYJ7yZPvh8WfCKfKfLdU7aTJi41JhreqPZEi4xXivJpuOViOss6abu0835uJA9CV1DuacendnluGLLRlQVOBGedKFqxRZcuWYe7OKB5K1lXUimCROXEhyRcRTG61whW7NFXEJoApoLP/V7tSCJWm1OlCxchauuuw43XH89tqxZjEynTRzNkxxMzD2wfZFk50o7M0n2EoEEy4IPh8Nq/lTbzXUwiUwnpxicbjfcnBJQUw7mr7lMzD2wrqopMxmVpY/MZhMmyV5CcPjCZVPGRyYTJkzMBKgAaDMXcNFXF5BELqfh8KUEd736sz/7M3WoIs/8uhw0WRMmLhdo7ZWbw8wlXHSS5VHXp06dMon2PLDwR0dHcdddd2Hr1q3Yvn27OeQ2cVni7DBcU8dLDstTvxwU0MeFiYYLD9XlgpimJxJo6vY8aD/8qfr69evVlNZcalsXnWSfeuopfP/731fnWlFTM7W1aTCruVaWe8h6vd6UrYnfF2z0F6sav5ys3zeeS5XOiwkdR3p8vCc47cV7LhHkT7aJc9u72Bn/FV6aaNPBeLSC9krvaBAv/QwPD6v9m7/0pS+hpKQk5X5+emYHF51kH3vsMTzwwAO444471PHXxEWO4rIGC535YebJxcOlIq/fN55Llc6LDXX6hsSn4+SVSE8D67VeNqXdiXRifVUkKx7ohz+KeeUQ0yT7/PO70Nvbg7/8y79UJKvTxnXfs40ZIdkdO3bgs5/9rOpZiJeLgplBY34MMmFi7kGRVYpkDSKllkny08SaFKeUtijt/OKQyUtzgqZdcT4L+r3vvvtw8ODBczRZpou/kJxtzAjJPvroo+rno/PmzVMEy8JIJl981o4mWL2g3YQJE3MLWjvlHKcmPd1W0zVXTSO/71yolkmkLufAINnpOPX1/vvvx759+xTJlpWVnXWjmW3MGLPppUqhUATjgSBGxiYuaMbHg4jFjHWjJkyYmFsgoWri5H26MqTdeCWZXYyPTVom5XHK4HxjtRnx6XhpNClrGGHnzubdM0qyPB21qa0Lz+w+hN37jhlmf8rI/a59R7Hn0AmMjflToUyYMHE5gqR2MaEJ9HxDkFu0EkciPZ9k5xpmjGR1bxKJxpSKX1KUi7KSPJQVp0xpPvKys5SmG4pEEYtGzg5HTJgwYeKlwM3vtSZ7OWBGU0nSnJyahNfjwpJFlVi2aN5Zs2LxPFSVF6mfaHJ7Ps62XC6ZZsIARyr6d+KiTsjVWHrDx+n+0uw4TVx8aCXucsDMp1I0ef5Wf3RkRK0R1WZ4aBj+gN8gYmmsJuYONEGeP7I4v5S4NjIeHkNPZzv6xnjcDYdt/HCRQGC4D11dQ4gkpj9kvBKSrAuqPrz4I+lrBasUOwHKS8rQ0sDcHlaa+D0xR4t3xkmWC5W5UPiXv/wlfvrTn+JnP/sZfvbTn+HHP/4xnnnmWfXRy8IJhbkxR/2GB4mUow+SkyLHNKLlZt6KBEVj5dWSkUT38cfxjS99Ed/59X6MhicRiyaQDA/i8K+/h29+8wG0DMYx9XK//lPyqBFLfPEAJiaGjIXtKa345XE+7RPqDaS9idzYGAITI4rojbQbMjXpK5+Mn24vl0YTlw/mINFeEn07Gomis7MLTU3NhmlukmsTent71QQ2zCOkZxUkHZKNupdrxmQYE0NtCARDSKS0yoSQkEVoaSIwgvaBcYQjcSQnBlD9/FN4+omnsePxF1A7GEAGvwzHQ+itOY5Dh5oxOiHkJcM6g0gTMqoxPlhoQ+01HhNijvlx+tmf4cEnH8YY41P+p/2RdGmXHjYRTxrhU/uH0vDEh5jISwSHcPTJu7Bj73MITcXQOzKEoQjfhB9LjPo2JemZGO7CyEQQCVEGLoYGbcLE+bB+VZC6vyggeTY0NGDLli3IyclFR3cvotKwtl+1FZs3b8EVV2wWswVbtm5F5fwFCEfjqCgrQbbPC26nZ+LSg8N8kmsyEcVweyMO7tqJX9x9F4JFa7GwvFA8xBEZ70bt0V343k/vwyF/NrYur0C48xDuvfdRWKtWI+LvR0bpWmxbUQKIBlnz3LM42ZODpRtz0Fl/Cv2jU8jMy4FDtN+R7gYcOHgUtXWNGJqwILcgB+177sHf/b9v4ekmYPGqjfAGe1F/uhND452oqe1EFC7Ex1uEuI+pcAOBMNzZuXBaJhEd7cTpo4dx/EwLxuMu5Oe4cXrH9/DVr/43jozmoTIzgvse+SX2NQSRa8uEJ9MNK4k2OoxDD/wzfrrzBCZsuXBk+eCzy7jKaizAP7vI3sScBr8L1NXVoaOzE9u2b4fP50u5zA3MOMl2dfdjfDyA3GwvbDZjH1L1ZVAIlRrIRDCKyooS5PgyTZKdFYhGGItjYqAZLzy3Ez/7wXfwH3c9injJZtx26/UocIRw6qmn8Jt7v49v//tdaIhX4PZbb8L6qmy073sQv94Txa2f+iNU9b+AUwM5uObadfBNBVD//C48c+g0TtY+gbt/9lM8+nQLChatx4KcAfzbV76Er/3bD/HgQzux5/goShYVoWHHd/Hzh4+jpbUdw94yZHXtxb/+v+/g17sexANPnEZ+eSXqd/4H/ubr/4n77n8AT7zQiKIlW7GyKI4nfvyP+Ku//mf87L4HsefkAAorvTj66+/it8/VyaipG6HMRViVPYKHfvBDPLq7AaFkCE5frtTJTCRF433opz/Ej+9/Fq0jETiTHniyfchyZkgd5RyWOY8116FJtrOzA9u3b0OWdJYyMJkzmFGSzc01SLZ/YFANEyeCYQQmtAmpa1Qa+ML5laYmOwtQw2upoKNNx/DL//xnfOMHdyNashE33/Je/PHH/wirc/145tc/xD987Xs4GSzCtptvxR994hN48+aFcMOPp+7+LvYGCvDmd74J3u4jePrYINZedwPme2NofP5J3H+sFqUbr8XNV67AeM1BtIZ8mJfVjx//z4OwLroSt1+3BUsWL1Om2DuCU0dOwlK5GR/+0B+gdLQeO5/Zhcll1+HOt70FV60pxVQgirzSKpRnW9FR3QFbyQYszqzGv3/7lwiXXoO33rQSgc4z6LHOw+bFLjScrkXmqmvxoY99DO+SDmNpQRYSoRo89tv/xQv1Y/CUrcKmrduxdlEZfI4kWp94EPfuOIpQVg7WrF4El1oAb+6UNtcxTbKdanc7arJziWRndjwkIzKn0w6b3YFwLIlQ9FwTT07B7XLBntrEgY3exKVDUvKfZTTcfBy7n9yL9uEEVl/3Zrz/A3dg9YJcxP1dOPjCMzja40f+omvx7g98EFevqoDXnoHISBcOH6xGd91+/OI/voMHdtWjp74Wpxp7kaB2PJkQ7fNafOKz/x++8pX/h/feUITW7lPojvuwaX4VCj1OTFldqNi0HuvXLsLaK67FyqpirNx2A95341rkWGW47ijDuz/+BfzFp9+LrWtW4pq3vgvvvOlaLCnIh9uWQDw2jub6k2i3VeI9n/0yvvp3f4+/+9s/x9tu2IJNW7ZhcVkRNlx/K9554yoU5Jdi21v/AO95+3ZUSCdwbM8e7DvdhuiUC4uvuBkfeM+7cPXCfPS27MfTu/ZjIBTlVLKJywhc1mWYlMUcwYxVI65hs4gmsKCqHNu3rsfWTWvErD7HXLl5nZi1MmzLMrXYWQCPBuca5aK11+Mjf/IxXLeuAgd+cxe++v++hfufPYVEzhK88yN/gvdsWYbAifvxzb/7a/zowX3oC8Qw3HISJ3vCiIXGcXT3czjZNYJ4pAsv7D+NgagIl4rudhWiUIbeHm8WsrPdiEbCENUWf/L5z+LOhW7U734Kd3/32/jZw/sRsjrgEPK2Sofr5LHnU5NwOCqwoLgUPqcFo40v4Pv/+RPsG7Rh0bLFyHHxp5dTEmcYFrcH+UUST2Y+lqzahDULy8GRfobIsTnscFhi6G/Yjx9+6+v41vefxohjId770Y/ivaL52oNdeOKef8dX/+nbeLwrgatv+0N86gN/gHLpBEwt1sTFwIyRrO5VigrzsWhBJRYvnHcBU6lIODPTY8zTmqrDJQXzm/meXbEUNwmZfuOf/gUfu34pxuqexz0/+haOdsex9sZ34m+//U381WeuR+ZEDe752c9w9zOHcerYHoRyV+ILX/93/PgnP8aPvvdv+PO3LEfPrj1o6IvDLnJ7+3bjiV0v4OjB/Th4ohuZbiFdlwWTeUVYd9Od+MAH34zCsWN4bNdhTMCOLN8kxvq70DgwgagMaiwZTtgt0lknQ2g9/hjuf+IptMes8OTYEU3GkbRYUVA+D7bBDuzasRvHDj2JH/7TX+HvfvQI/HYPsrKSGO7tQf3pw7jnl3fhnqer4Sp7Ez7/t/+G/+/TH8T2RZlo2fUz/M8996M6mI1rPvX/4Z++/iW856aNyHU5mENGRpm4bMCVMq92XfalwozVIr4oSZaNWJ3lT43ifKPO/reZ5DrLsEkZObz5WL7+Krz303+Fu376b/jjWxbDa5Mhu82NijWbcNO7/y++fdcv8OWPvwmW4Wo89tRROKpuw603vQlXXXkVtl1/E25/6xZg8HnsOtmAqJR9ZKgJd//L5/H+D30CD5zOxE3XvxVViVP4p7/5LD7x+S/iG/99N6oHnVizYgUKs3zI9LlQ+/Qv8I/ffQjt4RjiUzGpR0K2Vg9yiubDE2nB3f/wp/irf/s1eqNxDPkDqFx3E+5YZcNTd30R7/3gp/Dd+w8gK9uL4nwfvJkZOHDfj/H1/3oC/vnX44vfuQvf+toncftNV2JeUS6m4jF5Pwfe/bm/x4/++1v47LtvxsplJaKB88OsqcVebphj3HoWM/bhi0es8MMXSdbE3Ifu6GxON7KL52Hp2u2oKsqHjUeCSxlm2JwyHC/EihXLsSIrjLaBCFa/7V24cV2Z6KACiwz3Jaw/NIXcqkWoyvWifMGNuPHWlYhF7bj5bf8Xn/zozVgwrwKlOQ4MjoeRnVeM6+58H/74D9+K8hwPEpN2BKNOGeFswCohu0xvKdZdswnleR748kuQlxFC3FmIWz/0J3jX9Qth9RXgiiuvxebVos3GJxBzl+DW9/4xPv2Hb0NZViYScCAQdmD52tvwR+95G65bWQpfpgvWDIuazrBY3ShavAWrlq9AWXYm3HauKDBHVJcbzl1doD98zZ2J2RnbT5YHBi5cuHDOHWpm4pWhP0Cmk036R8nJRAyTUzLsF3eHlbsjGXuN8hdV8ZgM4yepfqr/4sZpI3HHlIxcbGLHHyYYuyhxHSq90p5xxUWznBIL9cMH1UgssDsdQooZxsbREi4p8VK+TZKWkLD8aGrh77skTCLJX6HJqImOEpwrWqaYbKZT4rjQBs4XelcTlxdisRgefPBB7N27V+0nW15ePqdI1qxZJl4EEs75pKPtWHktVgds0nm6lNZnjFQMdyvcHhc8YrhqhAfaOZ0udQ6+y2EXsqRWzHPxHcqeuyl53K6zU0a0dzhFY/a44ZKwLpdTCFPIUdyUH5tLwok7iVeG+ZRJkmW8XMHCs9OcDsM/P6SqZ5fERbsLECyh38vE5Q9VN1NmLsGsXSZeE1iBzxJWGjlxQGSQFYnYIC6a6Ypv3KfjfHLTYUiaJMoXu0/fUNS5BG84qjjSwqW7mTAxGzBrn4nXDA7nOcekpghSO1xNyhDemDIwjBreC0h6JLlXItgLIT0MpwIM2cZGLxcKf6F4TLzBwIpJM4dgkqyJ3wFTCAy0oa6xEQHuuqV2qY9jrLcD9XUtiEwJ0V0ksiOxcqOYyHg/Gmpq0TsSVPO4JkxcCOooR5NkTVzOoH5qscZx7OF/xef+4m+xt3VIaZZT4SHs+Z9/wJ988h/xQt2Q2uHqQiBpvhKMbQkNf0oxmRJSb34BX/7zL+I7j59GJGlBMp4mPyXyQrIN7feV4zRx+eD8Mk0fvfA+OTW3tq00SdbE74BJxMIjGB4bQTQxBYvNLhVJ7MZHMdI/jGBMtE9hx3A4hEDAj3G/H8FITGm8iXgM4YkgQqEwgsEJTPgnEJwIIBQOIxQIwB8IIhaPq+OIAhIuHImK5ARsWUXYfMVWrJ2XjwyLcQpDUPxzD4xIJIQJCReVcPGYyA/xgM5x+P0BtQMc/Zp4fYErRwgu32InrBdJkXx5z9Ur+n62Ya6TNfGaYFTZBNqO7MSuWj82bLsOxW4Lwv5h1O15FofbrbjmnW/BskKg4eBO/PbBx/DC/mPoseSirCgXNn87nvvtEzhe14DjJw7g9IkWNLcewKmGTtS+8AKeO1QPR24ehur34cGHn0BbOBMVpYWwxfzoHQghp2IB5hd5MHBqLx65/1EcbfUj5u/A/udOw1oyH5mJLjz16EN45InncPj4SfinvFhUVSqdAH8cY+oUrwdQWzWWBorWmlruV1NTc3aDmKysLLXPcIZa3Kc/yM4eTJI18ZpgkGwc7cd34IEnjqojZk4f2ovde3YJmR7BgGUebv+DG+DtfQbf+Oo/4Bc79uL44UM4VD+MwoUrsNjeg//+8t/gp0/twpGaRvQP9OHMgV/hvsdO4JTIeeKZ51HT0oJje5/Gww8/gAPtUSzfvBVFY0fxjX/8GfxVW3BVURD3fvNr+I+7H8Lxrh40V+/Bo/fXYvXNt8DR9Ty+82/fx2N7D+DArt2o7bJj2w3bUehRNKsapInLH7ocyS8k2vr6ekWyV155JTIzM5Wb1mJnm4PMrt3E7wRqEuGxYRzb9xyefOopPPn0Lpxo7UPcakdGdAi7hCB3d3vw7s/8Jf7hr/8UC3r2iVb7KNqC0kASASTzFuB9n/5zfPTd6+GJxmAt3ID3f+bTeNuabBzefxTZV7wNn/7wLYh2nhTteAj8MQOHiBbLJAaa9+Dhw+1YfOMf43MfezNKHRMYDccwmZxC7ry1+MgnPovPffQDuGFZCfpPn0ZN6xhbnEqzidcf0jtOvcIkfdpgtmGSrInfCcnYJHIXrMZnvvINfO8H38f3/v2b+PStVyBrMoGofxjVjYPIufb9ai/X937ko7jzuhK0Np3GmYFxOO1ZWLHuVnzwHbdj8/IyWDLsWHb1m/De99+J61fNQ0XxBrz17e/DH9x+PbKdGfBH4pji2lvRSGxCsiN9TRjPL8cdf/gBvP8df4C3bt6AInsGkhY7fAVlWLRkAXyRMIKBEBKTEbXkjGfNmcsSXt8guZJkadRPweXKH7zMNkySNfE7gSMxl68A67dsw3XXX4/rrrkKa6qKYVezYPwAIYPzDKsQqg12bmFIjqN2gaTY+1DgK0e2ww6LaJ/8ea7b64bTJv5EQo57HvI9WUKM0kAy0rfA5HCfcU/KLRsST9oQzZnzc0LUlvgAHv/xN/Dl7z6L8je/X4h9HTIzJE5TgX3dglMFRPoHLpIrf85Pop0L05UmyZr4nUDC5GoBbrwuYzJMCpHFk8aeBNbsQmxcXorBnd/HD374U9zzk//Br5/uwOIVG7GhJBuBWFKG/0KM/DAhjYOy1GmxIoo/YuC+CApTxg8PuLcsHSeTccSmrCioWIGcoU488MOf4VcP/xL37T2I/kkHJkOdOH5qF2rbGtBQX40T7R0YJdmnNUATry+QRFmHqMVqolX1ScxcgUmyJl4zyHkZVg+cDhdsokVOcYgmhGl1ueFwO2BzF+OGd74Lt6yw4Ff/+tf487/5NroX3Yx3v+vtKPeIX48TDqdoGGwcooG67Znw2OWZGqnLAYfHxltxsyHT4YRLNNwMuXd6HEKYFhQu3Iq3ri9Hy5Pfx9f/6xEMJHORlyEasqcSG6/YAnfnU/j6338LJ4ZtKMy3YCwQQIK8Lek08fqC1mQ12Mlrw41jeJ1tmKsLTLwmUFeYTE6qIXp++TKsXbka+V67DMmFZGV4X7hgOdasX47KBcuwcvF8FJTMw+pNV+Mdf/Qx3LFxIdyWBOzuAizdsBZLF3ArRQscOcVYtnYrlpblwGnzoGjhSqxdOw9eZwZcuaVYv24dqvLdcGWVYM3GNci39GH3noMIWObhjnf/ARbY+nG0dgI3vu/DuHHDfBTlFWDl1W/Bhz/wTqxfXoLyxSsxryhb4jJJ9nKA1kxfDmrqSfxpjZVLuLq6urBtGw9SzFJ2SruVkYzVNrscZG51aOI1I5HkFoI8MlsagmiWrMR6yC/NQx37ouZPZbhvbD8oz+KXJMehfyLOvQfk2WaTcHoxOTXXDExRM0ltMENKpyai9niVqNQ8r8TVe/h+fOFTf41TiRJs3lSBtjMn0JNzPe75yb9gS4ndaIAcpElcPAJpStJok3CGTBNzFaoOiWE5vVxZ0Y9eH0t/rCMPPPAA9u/fr7Y6LC0tPRtey5tNmLXOxGuGzcqtAx2q8pK8WNnVRwYhTZ54wZMWbEK0VptddbLqWfwq/xLWzlMxHMb2hhnqmHjuAWtTpGtzOsWNp2nQGNsVOuy8N07RgCguhYs3493vvBWlGSM4fOAYxnzL8ZHPvA8rSxxCqkwH45S41McPyjUJ9nKAqg/SKb5SWSUTRsdMoiXBXkhPpFs8Hp8T0wVmzTPxO4LDNE6cTg/r2DioOWikaxHpDYchtDdtm5KWep72Sxln/YoMnmrgyq3Emz7+RXznRz/GT378E/z4P/4Jn37TZmSlxaWPj1H3aXGbmNvQ21e+FEioHJ3olQPqWeqgJlqt5ZJgScZqtDXLuOjTBTt37lTms5/9LBYsWHA2E0y8vqCrTXrZvpwdoe3P95f+/GrcCD5rPwR/Rjn99GKk+zUxN2GUsdHd6vKaLnPanVufCP18//33q+mCz3/+8ygpKVHhtQw1AppFXHSS3bFjB+699168613vQlVVlbIzK7iJiwlWWWor6Vqz0nJFszHr2uWBly0nKd8Xk5JBsungdwHWAzo888wz6O7uxpe//GVFsumY7ZHMRSfZhx9+GF//+teVFpuXl6fszIpvwsQbB6QUbV4K5AS6a27Qz/JHPStoOw3xKlSbehDQTfwwbGNjI4qKihT38Iwv9cE0Ra6z/fH9opMsVxZ873vfw7XXXvsitd2ECROvf1yIUvSog8SniFL+099ZchUYPCH3qeBqtcl5svh8dgRDtxS3HDp0CMFgEFyRWlFRofwxLl5fdyTLJVyPPPII/vRP//TsnKwJEybeONBKFUkufUrnHGVLaGF6UsDY0EWfHac546WG+ekytV8u4Tp48CC++MUvKk2W0wh00x/IZhMzQrLUZvnhi+tkmVEvlVkmTJh4fYIkR1IlIZJiaPisucBgHYN6uM8vCVaT54UoSdtpmfyYpacE6Pbb3/727IcvrpOlnV59MNsfvmaM/fhyNCbBmjDxxgMJjm2fhMir1ii1PUl12s7gCM0VJFLaW6zGVALJVC3JSvvYGY1FlSasNdZ0MmdYPmu32YbJgCZMmJgxKLJMkWY6iaYbgkRKYtQ/IIhEIohFjL0HOKeqCZv+ebXb7HDYHWfnW3U8BMPwmcYk2UsIFowJEyYuLdLJ9aXAtkmjyZHgT7MZTpMr7Z1Op3omcVJL1cRMQ3uSLPePpd90+9nGnCBZPQw4/8A7lZm0E7eXAhehT06+8mF5c6FHM2HCxIvBtsl5U02IvFJLJWnyPt2efnmlm55C4D0JV5Ovbuv6ebYx6yRLco2GQ/AHYghHjZ5JIxGLwT8RwWgoeo69Bu0iwTACEzHEkxcmYvqJJ3iK6dz4HbMJEybOBclQE+P5JKnbvban0SSbTswE7XRYbT/by7eIi06yr+WluENTMhmHf6ATDz7ZiM4ghwBxlbGKHCMhPL3vDHZ3BIREz/2FD0ENdrSnFzv2tKBzXMIlzyVp8SGZLiQeDKKtf0JkGLbn6rQXJud0zH5faMLE6xckRA7x9dTC2SmDtHuSJ5Uk2tGQYMk1mlQ1wWryZTg+vy412erqarVZ7qsB93pkFsWCAZyq74M/bvRSJE/1G+ZEFA2t3WgeCoo/yUTuki9EqiFUjHAggNrWQfhjhiyGTSRiiryTQtjJRATtNU147GgPggkJL3YsrCR38ScpK/I2CoIFwt3+jfDGFARJm9vvUV5CzNkOQA1VRI7II87vAEyYMPHSYHvRm2qntymSpMEBxkcu1cak/aWTpiZcGk2y+spwRvtOqh89UNZs46Kn4H//93/h9/tf1csxE0mVvHB3JRIrSbC3ewBPHu3AnjODCDOjLFOijfrR1jWOkTAJb7p3YljKmZyMITgygp6+MTTU9eOZ4z042RdBNBzBmdpe7K3pxbGeIGIszIkR7D7ZhafEz5mBmCrsqGjNA929eFbsd9UNo6l3BG2jYcTiInd4CAdPduOpk72oHgmLhh3B6OgIajuHcUzk1g5EkDDK2IQJE68CbLPnE6Qmz0hE2p20SZKu3pWLbkY71yRKYjbsCM03vGpj7CU8+w3zop+MEI1GMTY2pnYof6WTEZhh0jcJifXjUEMca9aXwTnSjW/fdxRPNYyjvrEHpyYmsXxpOZa74jjVOAZnrg95TglsMTTe8f4hnOpJYOXKfAweO4nvPdCEhu5x7K5uxRMNoyjLtqL6eAee6wgjqygXK7PjeH5PDX56uA/VLd1oaAugcl4RvJFx/Oi+Q3iwZgTV9e144FAj+jPzsTk3gV89fhKPHxvCkeYenBBCXViejY7jR/G3OxrR0RnAZG4OVhR74Eit9zNhwsS50CSpwXtFhKmrNuQLoQXY7cb+wgkZfdKObpow0/3TD3mkrq4OHR0duOqqq+D1epUd9xLmGtz0eGcDF50Vli1bppZapIMvbKwCMIbmHJKrg/PUAD/V00hGTMbDOHm8BeGSRfj6J67GF26rBDhPKyNyX0ERbrhqPhbnO2FzGOvmGCYd3HG/d8yKbW/ZgG99dC02xsbQFvFg+8Yy3L55Pv5oazFG6tvwbDPwf/5gK772nrVYGR/E/z5fh917z6DfVYavfPJq/MNbKmENTyEUiqL9ZA32jXnwnj+4Al95z0pUDndix8FOjI9FYLVl4wPvuQrvWZMHN49jNWHCxAWhpuLSRqCEasMp6PWxJFISJ4mR99zEm+HIIdo/NVi60S4eN8LwXkOTqjHVMPvTeBedZNNfViMpGmc4GJKh/Dha+/wYCEQRk4xTG0Ck/DBbYhE/utpjuGJpBapyPFhYVY5rKx2wiz/69Xo9sEsBXCjZlMMeb9niIiwpyEKOhF/hkcKKimzpzdgzOq1xDEj8o+NR7DrUjF8f6MFpIfGe3j6c6gxh1fIyLM71oGLePFy3wA0nIujqnMDIaBDPHm7Gbw72ojswiZA/ikiGAyUl2SjPccJtmxtzPyZMzEWQE0iE55Nhuj2htdIpHlvE7ycpv9qPJmHDv/FDBh2W0FqxvhLp7rOFGWcGZhTnS4c7+/Gbx2rw/Ufr8Fz9CELMQGZAKg9IstRy40KKXh5NIg48O8rjIsHSGz2+fK/EzM1222FT/sWvCKVco2BEU07EMDIRQYbTjcoCD0oLfNh8xQp84MpSuMWPwyFDEMrJsMEr8WIqgqHBOJweIV7lPxvbrlqF2zcWw+OwwOa2SQdw9hVMmDBxAZDw9K+2aDR5kjR149ErBWiouarvM+KPbVobTaAMZMzLco2s0e61+/mkamwCPrsgp8wo+OJW0fq8uVm4Ym05bt5YjmXFHtEq03/yJhkrtza7C1k5QNuQH5FJC4ITIbQOxRCXXo10yVNSjWmGaVBCupxU+SkYhSY3UgAR6R2RYUemyw5vlge3bVuC91+/BG9eX4hF5bko92agvz+EsISPhfxoHZBCnLLD4xMiFc34tqvE/3WLccuqfFTmOmFjXJRvRGXChIlXgCZYEqQiUPmn7/mhi1e2WX7sUrwhHMFpBEK3ccOdZGuMXFUY1e4NUiZoT5B49f1sYsZJlrDZHMgtzMPW9eW4cX0Z1lZkwa16LvZA7H04JzMJhzsHa9cXobauCY8cbsNj+xuwu1cyXzJ9KhlDR884xiPTwwgGtEqG84cIlEN73rMQMMVTLCXjhShzctzoGBnC0c44lqyqhH2iF/cdbFcrDO597DiebI1h8cpitDU048FDEu+BJuwbCGPK6cPGTaWIdnfg/oNd2HeiHXc/chzPNfvBojeSwZ7VhAkTrwaaPAkSpl4BwLZLUtRzt3zWhKoNw2ni5LPShFOgPcEwJGaGp0n3M1u4JCRL8CRT9bVPMtUuV0bMSW2qgm5fDtatKEKWy4lFa5birQvt2LGrAXv7nfjQTQuxNN+JiaEhnKjtRe+E9HwJIxNJrI5ML1YvKoTXakFecRFWLs6HwyJuVjvmLa3AgkIXysvysC7Liheqh2BfUIVP3FCK44ca8L2ddaiOZ+NNq8uwauNyvHWFA8/sbsDD7RZsrHQhx2FDwdJl+L9b83H4SB3+e2cT/Nll2L6qEGVF+dgwLxd2xmUSrQkTrxqaJG1240cD2o4EyXlZPbXAdexsWpxGJFka0wjTY0f65Vp7tj/ak2hpp2VRBo+omW3M2H6yf/Znf6b2k32lX4CRLGNR9XVKzb3yw1aca+QmDeKyWyWzhJQloYiIvdPhFJksGKPXY/Jjce7UIxmbmEJCCoTHUpO9k/LMc/7tNqsUmNxLGBU2EUNETQcZmrANEbTW96MPHlQWZ2JytB+/3N2CNdduxe2LfeIniXBU4gIrxxQ8Qr6cwpgiyZvHTZswcRZszwTbRPo9wWdtR2h73Y4VKcqVz5ow9b3WVEm2iphJW2LHZ7o9+OCDZzft5n6yxo+JDNLWRD5bmHV2YMa63G64XA4h0NRZ/kLMnDt1OzLgdLoU8dLOI/54hr7q3gTMPGaix00/dtiE/Dwep7LjOf12eXY6HSqs3SbxOKxC2pyEd8DjtKoPbE4bCxAIjQ7jseebcJ9o0PftaUWssByryzNFjgUZFhu8bicy3ZIut6RRSJ/L1EyCNWHCID6SIedVedXPJFRe9fIsTbLpbgRJUmmkcqU927UmXN7TpOuCDMdn+qc/GiUjRdDaKL8S72xjTjKE6nkk46xClOnQmflSMAhv+pV0Aah7ytSgnAxuCiyFSS3Z6sGyDYtx09pCRbx5FZV4/7WLUZUlbvKPYfVk/PnyTZh4o+J80tRtk+1CE55ug3zmlQpQuj9NvtSbeM2Q0WFSRokMS39aPpEuj9OPWqYmWBre0+j2yqWfs403DEsYGX8uQWrDKQ1XVi6uv3opPn7HSnz0TUuwLNdYn5sexoQJE9PQ5KrbkB6aa6IjtCZKP/SvyTC9XfFeG34I03vJkoB1WC1Pg/G+mFiNUSlBe03Osw2TQVLgRzRORTgddthZMaRgTZgw8dLQ5MernirQ0Pe01270S9IkQWrDsCREgqSqNVttp6caCE3gDKPDar+Gf2q0RrqsoskSWs5swmSSFFgwhjGmBuRPysWECRMa04RmQGuqWuMkNIHSjqB/3pMsubcJ/fEEAxIm/WnypTZMe726gPa812HpVxMxSftCa2jPGvlHGdptNmEyiQkTJl41SHDpH7I0NMnSkBhptNapSZJX2hGUQaLkFAPl8Dn9w5kmXkLL5HO60cfR0K+Oi4byKCc9fbMJk2RNmDDxstAaJImQmiEJjXYkOpKZJsZ0QzdNfIQmP23ohyCx8jmdIDkvm0iTySOodDhCX+mmNdd0aFk0TMNswyRZEyZMvCw0iZE49eoAXklidCPpnSXECxDuNAkaGme6UbZy1cSpIN7Vsk1trIa2q4lbI51cec+4eTXsxR8v015mDXOOZNMzbjYxNwYaJkzMPkhumlDTDYlPk62+cljP+/RwJDzec7OWdIKlDLqnEyfB7QljqSkJGpIn/WkSPQsJp8PTGHEZHMK0SSrV82xjTpAsM4/DBv7Siz+lM3pDY1L7YkBvm6aOpFHGGKro3jMhBarvDYhfNWfEtMz+YmYTJmYbmrgIkpl+5ocsra3SnnbasB3rK9t3OhlqQtRQRJsiUN6SdrU8Yto/wxsatSZ2ZZuSq+NQMow/yn02MeskqwuBKYlNJjE2OILGwRAiiellHL8PDNmTGOoewb5Tvdhd049jfSI/FkVcKkg0FpFKcq7eyo2Ak5EIevqCCF08rjdh4rKEJkuChKqJLJ0ANcHRTpHbOfbGPcE2rY0hh+5GWN3aDXtD0+WVMrVhWqj4UAmjcsTndJk6vP7wZrHMvjY7qyTLTFOZ5R/HvmMdGJEC7OvuwbMNgwhxbwDuBSl+qFkaZjrDGHba3oBhNw1mejIZw0BnOx544Cj+68FT+M8HjuEf7juGg51BWGxT6O/qx5kunmTLnpkaNIcmVgz1duPo8W4Mh1l4IldkT8dpYDq+c+1NmHg9gWSlCZMw2pWxMkDPk5J8Cfphu6A9rzTpJJ1OiIahuzF61aA8hqd8Pf3AZ+Nery4w7AwSN0idcRhpM+aIjfS+wTVZle9TSbTU1uDfn+/GUGQSC5YvxnvWFyHTakE0EkMwHMaIP4TxkGie8Zjxkzsh5lAogmGx94diaoMZDu/D4j8iWqiGWmoSnsBDT57BQMU8fOcLN+JHn9mKjxUHcfcTdWjsH8KuJ09hV8cEJqjVivYaETMhsrNLy3HTtVUodk8ixHREovAHghibiCKslpok1N62waCkLxBCQK70p3YOMmHidQRNZCQw3msC5D2vmoTTyVSTnCZMQss43+jwvGpDOXqpGKcatCEYRu0tLX60JnshpBP3bOKiH6TY1NSEhoYGbN269RUPUuSxNHH/CB7d14iddWFUlPjgDY+jZjSBPFsEJ4714FjXMHafGURjbwg5+VnIcgBjA8N4/lgrnjkzhI7RGPLE3pkI40RLH/wWJwp4qoEUVFK001gwiCcOtcNaXoKNFT5ket0oL3LDMyU9cGgCj+3vQH3cgflFNgQaBnCwdQB7msbhsIZEq47C4bGjrr4Vp3r8qG7oxwuNY4iLpluW7UBoeBjPHG3Dc2dG0NE/itqREPJzJQ616YxhTJh4PYCExfqsyZDElk5wWotMr/cGyZFIzyVP9WMfsReblKJJN8owZJEzKEtrqrxqmToObpPIfQ7oTtTW1qK7u1sdpJiXl6uWgHHgy6kIHqY4m5id2CWjdaFMMvMlo2y2DNglVzoaW/GwkGcgMISHHj2Bh44NIDwZQ1O1EPGJPoyFAnj++XrsaR2XQozh5JEzeOR4L4LcGlGGHhx+sKiMygA43B4sz3ej4UAtvvmbE3j89BCGM3Jw7ZVVKPPKsCODPa30vOFRPPXYKeysHkFSCmWsrwd7D4l2HUzi4P5T+MX+TozFkhhub8fjB7rQNx7C8ZONeKJhBLE4O4Ra/MsjNegITPe2Jky8XqCJj0ZPDZBE04mW0GSafs8hvhFWWaf86zlY2uupOMNNy6OdNrRLl6t/zMDdu9JBN6VFy5XkquXOJi4JyTIzmCmTaoidSPUy3MvVCmemD1cvycWiygJcuTwXXhs1XMloZp7djs0bluFTb1mD927OR19TO47XtuBwywSuvGolPn3nGrx9VRZaG7vRE7Vg84pKrCr0qgpBMJNtLiduuG41bq604QXROn8iRPrNnx/Gsy0R5FQUYHOVD9tXlWFdiQsxyY6lyxbiwzfMR6XHJmmVToAVQK65pYV4+w2r8ZGtxQiERnCmvRvVTQGsW8/0rcZb1xUhxzIp7zapOmddIUyYuJxBktJkyjqdXq+pyJD8DLIzyOys35S7Plk2xZtnlR8ta/rD17Q940yPi1cjnLE+V9uLVHHUpH0ujDinFNnONmacZJlhCdFEIxNhVNfLcLx+EC1DYUSlICS3lB8ekMB7yUbJTOmB5J75lpOdidULspFld6C8vBCWqSBq2wbR7/RiYZkXbrsTi+cXCRlHMRROwiYFYUvt4EMYhZGBkqpSvOPOK/AvH78Kf3JjGYoCI/jN4/Vo9CeUJsuCYHw+jxOLinzw8kBFpkcMP05meN0oKclCttsKt8eNKVcSI/4xJCMuLC+W9LnsWFSehwV5dnVWmQkTlzuoFGloktPDdz5rEjtLejT0q+hV2r24aQ3UIE3DC/3q4T/bupZHN95PP6fkqatxTzna0J+G9q/D6DhpFBHPMi7NdMFkHN2ihd794An8y29kSH5qAAFR6adItHSWTFEw8ugs2LvZpCCYd4rwmGXilbM5PJFWnJWWGY9JL5qSkZb3MmyIIxYOoblNCNEtGvOaMty8eTE++d6lKBkbRnNfSAVTJC/gzlsOK+M5D0Lc1IoZP/trpod+LFNSYRhY/qsKkypkEyYud5CwlCaYIj5NaiQugu7pWqUmOZJaun/tzkai2rn8V+Qn99RylRaspvnOJWXaE4YmbMRJN8qjbCPc9LzwdDzTaSHEadaRRkkzA2aI3Z6J+asX468+cz1+9IXr8Ufby5HrdBqMKJnBI2E8yQRiQphJZrDKNGBsLIDjjTw8MY6Ojj4pnyysXVSM8nAAdZ0hTIRjaGzth33Kg0KPQy3DikaNHphLsbgx93BnG370i/347clhhOLinpBCsttgy3MqzdViA4YlDMNyyMNZCkL3xISRJnUr4JyUBd7MbFg9IZzqGYU/FEd9+zCaRuLkYxMmLnuQpEhg6SadBDXR8Ys/7/UUHe9pNNHx45ShuaqmrkAZBnFemAFVOHKDulcXFYZyNLHyniSv18PSXnwbnlPQaZ1tXBJKYIY5hFSzMx0y5LbB5zb2bFV5LCyXX1KEsuAYdp8chD+RYRwJI2GS0SgOHK3BXY9V4/7j46hcPR+bhKw3L83CgQNn8JOdp/FI/QTmryhHuXsKJxq7UT9q/AKFmiUzubByHras8qL6WBP+57Ea/PSJGtx7aAglqxfgioWFKCh24ODpThzrCsLikEITlpS+WMJzXR7X4knapSCdVJ2npMJkiJ3Fisz8Qqxb6kP1iQb86PEzePRUH0aSUjmMVzZh4rJEOqlq4uS9QWIGAZLYtB2f2d5Itrwn8RFUUvjMzV4IdS9XSkmJUjDmYs8lx/OfCR0X08T4NQmnk2h6ON4bqw9eLOtS45JxgsoUju8lq/nyBL86coidVVCCG7eUI1NIrmLhAtyxogBOydS8XC82LclGMjaFqlVL8bYNJfA5vbjxhhW4dl4mglELVm9ajXdsLIXXkkQwFkds0uiBCW4yYXVn4vYb1+Edq/MQDEYxEpyEs7gS77+6CgVOK1auXIAbyn2w2H3YdPVSLC1yIINxl5Zh29ZK5GfasWXdYlxTmS0EDGTm5eKOdfNQ6fNgwdL5uHahD9FYBqpK87C8wgMHe1uJmwc/mjBxOYKEpqcCNLHRjm2YV014isjEjob+aU/S4xpW7abtNPTUAN3JBRw9GisEDDLU8s/KUsZ4ZrsmoWuCpzk3zLRs9Wy0ROVnNjHrp9WqTBET5ZIMSYnqeCSz/N2N+I+723H9h6/B9nK3+himPlKJhskwCf70VTLQKv6pbZKso2LHs384j6tIXcBCYkHyVyBxKRz2nIzEwTByVQXHqQL5ZxPZ6ugLkcXCpF/th1MPjJ/yuPVaLDyBR3c3YzK/AKsLrGg83YAjsQJ85s7VKHMZvbNOgwkTlxNYx1l3Ncml12N+ENOEyjaitV3602SswXsd1lB82LgpU1lJG0ldaa8fzhIjSdOw5lW1cWl/dFOcIQ6Mk+DzAw88gH379uELX/gCysrKVNoMSRa4XE7lb7Yw6yygejQpCJKxy2FXQ3O19MrhQmlJDrJdDrVigMN4nkDLQlNDBvHL02e5vpaFzsMO3ZKZ558gy3tOPTicDrhoRFt2iUpKexI2f57nsIudw6GOEreJHLoZO7QbP91T9ym5jEt9IHM6kZmM4NCeJvzw8VocHnXiTevno8jFnt8kWBOXJzSxphMYoesz2wMNn7UCxXtDM00pNRLEuFIbNTRSutOLVlxS3hWnKhWHc7Qp8tSGcg1jECsVJUOmkTbtnh6GhvGr8DSKmGcXc4YJpjOUxgpPXine/pbVWOxLZbaQYTq0P5LkK4F+z15Vxk8TMa+qQFLPrw4Sr82Fq69ehY+/ZSU+fPNafOS2ddi6yAendAYi1fBmwsRlCLYHDbYLEpte0sVnTXL6SujpBRKwDq4JUcvgPY1ubzTW1F4EvNfx8sJ7NZ2Y8qfDGO4WxDltILIMDdmA9sfw+tdgjHe2MSfZgMTp8mahrDQbOR6nGsZfDKQXVDouZPdyoPbMMNl5uVixpAhXLC3GirJMZDpYSUyCNXH5gvVakx4JSpMY7zkEp+H2hpowCdrxwxf9ptsboJZKdXVaS9XEZ9yrWxUnZwnoRkMZlHn2l11p9goSjqNOkrsG5RFMu5KdZjebmNOMwMyimYvQabPZHXJlQZoEa+LyhiYxTXC86gMPSWZqWk4TWIr0CNpz6kARpYDhUk4KxrNhocMTvGoCpR8+G+5G29J+KVcbTao6LMOdD0bFKUL+ovTVjHRnGiYrXAToCmHCxOUKkpU2mkBJaueTGHefI9HRnVe6U9ukoUbLOVgSW4pHFRkS6oO0GE2cDE+S1O581lduOcor3Ui4dOKzId/4wMbvNtq/5nP6M8D06/d4MQlfapjMYMLEGxgkIq0RGqSWYkcB7Wn0NAH9EiRLTbTEixWMaXslk//kquMxyM9YeUDCJOieTuh0N9JCWdP+CS0n/ddg6dCvoIl2tvGGJtn0Qj0fL184s19wJkxcTGhyVaQohiSq7c5FxlnNdZoIDfCZxiBS45krAviByiBFbYz2o1ceECRbkijDGJqqsRyMRqdJyRKjwzBqhtE/ZzfSoo0Bhp9tvGFJVg89Jid5NYwUu+Eo4Obb3JQ7HfSvjyc2YeL1ABKTJrh0o+0IbUe//P7Ae5IX28H5JJbiuxeBfnVcetUAoZdYaU2Z5E7wnhorwbB0JyifMiiLRig4pfLoiA1i1nacm51tvCFJloXHggiNT+DImR48d6oHe5uNPRImE9JL8yeC8o8/XmAvrJGIRtE7PIHuILdrNInWxOsHJCySmVYgFFGlDN0Iaq/GEN3QNtPJVpNeuiHJce6Uxng2CJOG4UiI2l6TOMlU39NoMqYsrlvX0xRn00o5/D+l5RpWqT+p6+xi1kk2PcPOmlQPxn1n0+3lz/T9BTDtl+Gn/RjPBhhfXIh0YmQIj+84iu89dBLfe/Q0/vUX+/Grg90YSyQxPtCP3SfbEJBgrAKUSQ3WYpnEwVONONY9hgTTcDY+415jOh0pN6ZlDhS2CRMvBa01To/wDO2RVz09wHtqnrynmw6jydaYA2XY6Xs9vDdIdRoMo7VWumuQvPlsKEJMlxGWRE17LUuL088GIRuETRh+5kabm3WSZSaR9MKhMIZFsxwNRhGNx4wCliF7MBhS9uNhY+OXSCiEQCiGCM/1EvfQRBD+iTASEiaSOg9slOdwRXgeWBwhCR8MRRFLnf0VFxLlvrMH953EXr8bn/vj6/DjP7sWX7kxDyeeq8WpnhA6m1vx/X096PZHEI1GJHwYgUAIE/Ep3Lh5Ga6fly0abwITkiae+zU8HsRE1Kh4CSFjLn8Z8wcxJmFCkqZY3Kg0JkzMRUwT17SGStLisiwap9OplnLxF5ckPe1H+zPIb5r4SHZaC6VfQ1WZho6PbYKGstNlcfRIO0MLNpZt8Uq/esOZc+VOk6mISKVt+j1mG7N7xpcUGDMuHgniuT1NeOrMEKo7xpFV4EOuGwgODOO5g+14pnYILUNRFBZ5kBjsxUPHB+HKyUGuJYzn9zehK+lCsTeJ49UtePhYP051jmLS6RW7DIz196OpfxKZIpBHf3HOXQYl2H+oDvUZudi2pAA+rwMlReJfCtZjT+LgiWbsbAijsigbeZYJPFHbj4b6QbT6ExgaGsYYrEj09+G5hiE0dg7i+VNDGIxZUFLogSMeRO2ZTjxyqAf1faPo7gwg5nCjKMcJY9XJ7Be6CRPpMDQ+gxinNdHpOVf9bLhPE5pu29reIDT9qy+DZHnVRtunyyBoRwWFV0WoQpAcfU77TddKRY4iUaMd0Q+XedXW1qBLnfG1DZmZ3jT/Rscxm5g9TVYKUPVAoo3WnKjHw61+OF0WBAZ6sLd1BBOhUTz/QjMaxxLwiH1fYwt2HuuBPzGJM0dr8fjhdtQ3tOI3R3oxFomiraYJ9x8fQEyYLD7ch0d3NaJuNI4MtY8Ah+tipEDYO0p1wNL5RbD0dOJbvziEH+7tQNNoBhZunI8lRU647RnGHgcOYLC1BT99phHdsQwIxWOvEPDRviB6mlrwo+ea0BGahC0yjsf21ol9AIOd7Xh8TxtGJZ2xoR786sET2Fk7yD1p5J3Vm5swMWdAIiVIrgQJiyBJacNTojXhkuR41cRo2GmyMwz9Ko00palqOdqQfFPBzvrVbrGYsVxMhzdI33CnbGPzJmMakXaEvhoKrY6H75Oyn2VcEpKl+m/M6TBzkjK050/lUoWbiKKrdQBdNg/WLyvHu960CleWeRHs6cUOId68ykJsXlGMRfkWHD/ehRFPAd65KQ+dR8/gu4+2oHL1Ylw9z4b6U73wlc3DR29ZiT+6fgE8EwM43uFHdkkJ1i0tQLbTWAjNXtBisWLV2uX4wJZC9Hf34YHn6vCtew7if/Z2I+rKxob5uVi8IA+bl+TCI4XltGfium1LcPOSbNgsU2o+NhmfhCczBzdtXYY/vHk+yuwRtPSM4VR9H4byCvCB21fj3VfPR3mBFVEp6/T5IhMm5gpIXPqqNU/VTkT705pnugZK7zoMiY7QfhlO26WDbvpKc5YwU/GQuPlsGJKmQawGkTIeYykYydUgYJL3NPlOk6lxTQ9zofRcasw4yfIlE8kowhNhnKzpw74zMnwfDAnxGBlisduxbGkh0NWD79x7GPefFo1WtE3/UBD1Q37s3NuA/360Fo82RhB3OqQ4HFi9pgrOyQB2dGXgts2l8FlCGB8BVgoh57tsyC0uxJIcK8J+CSOl5lRDkOkemvzuyc7GNdeswTc/eR2+8a7l2J4/iRdeqMWujvB0gTN9Ei67IAsFXlYisZNnJUk03eLiLJR47fDIO3hF244HY2gfi8BRlo0irw3ZeT6smeeF9A+iA5swMfdgkJRx1aSl7fisNdF0rZRtg24kSN5TgdLhSJx2m13N33Lozzld+tEyFEnKPQmRMtLjpLuyTz1rMLwR1/SzzWpMK+g0EFoOH9PtZhuXRJMVdRU9jW2496ET+Pb9p/DY6UEEkwlFYlOwY/G6dfiv/3MlPropB7WHavDt357Gkc4wcvPz8Jl3bcD/e/cG/N1Ht+Pv3rsGqwpsiIYiCIh66JDCHYiSvgxJUl7yV/5JQY7F4hijizixL9OZzoLMQBJ1Lf3ojtqwamERrhHS/uDb1uPqggQOdAyrY3CmxLuSKuEy7GJELmEUJO2lZ+YJDoZYA3J/tkiZszL0UjJmv5xNmHhJkBhJiLyynei2km6vwfpPjTIdJDrth2FjcW7sYmzuog3dSbjGB61p/5TP6GhHUD4VItrzgxtbFN2pvTIsZVDZ4Tp2GmOEzBY+3cgMYj2XbGcTM06yKnNtXixYuxR/+9mb8LO/vAl/fHU5cvhFkTtuT8XQ0TGEzpgN22/agK+8axEqYmHYsz0oFAIdSGagqMAL31QQ/X0TCAUn8OyhVmRUzseXrnHj0Web0RP2IL8oA6fa+tEfSmKwZxBtfgtKclywS0FEIlEpDEOXVCQZC+G3j+7Dvzzbiu7xOIJR6WEnLfB5HCjLdsLpEBoOxdWZYDyenEMPDRWeVzGqbFNQBe2wYnGBG9H2UXSPRDHQO4LDrRMYEvfZnXo3YeLFMMjpXKQTqobN5lCE53K5FPlxvSr9sS1QBrVTGoLP6UStTz6gPXfvUquCxK+htRpKj5ajwWfKi0ZjKVI1CFrHw/ZI+SRmTdicS9YyjHfQ5PoGIFlCZZKQqtdtk6F1BjJdxhlfSdEYJWsw0tuF/xUN90eP1+Chk4MoWroA1125FHcsdeHZx87grkfpdkYIK4DWxm680GXFdTevwoduX46yoV7saoti8doKxPvbcdfOk/jxC21wFFZi+/wcjPcNoLrVj0DCKEgWhsXpxS1XzoOzpw9376zBj0X2j55qQkZBOd62qhjFpTnIHRrH3jODmEjaVHqN/Smld+XG4jZjWYnbKUMVFqJV3oe/YpHKuG5VJarCI7j3sWr8dn8HRkamkCUV4sXV2YSJ2QPJje2BhMZ7aoSaKDXp8UpQK9XEp0lRkygvBvHalb0OQ3JTZMttStN4jrc6LKFJ0tBoDXttRzJnurQd/fDKKOhXx8WrkV7jXttTBk86mW1csiVcKgPF8MX1T914L3+Qn++F3R/HUGwSrpw83LhlAeaL3bxSDzImEhiOTyKvuBg3bKqALxkVAi3BNSsKkOPJhM8pMjOzsHZpCcrcU+gfT8KTm49bti3EigIHglx7G7EiL88FL4lQ0sMOr6w4D4sybegfjSIkZeLwZOPGaxZica4DNiHVbNE9p6Tnnl+ei/KiXCwq9Ki5YqvdgfmleSjNcqKwUGQUeMAl1XaXE5XFuSjyuuByZsAfnII9S4g4OYmyqhJsWJiDDJZ9WgUzYWK2wLZHMtJkZZCX/vJvkJYmYq7I0QRMaDLklbdajoaWqZHuRqhwEo/2R8O4qACp1T/yrHhC3PWV6dAjSr0SglAcIqivr0d3dw+2bZtewqXki5vmoNnCnDjjiwXIK4fmzBge38JJbQ41+PNV2nMexib2k+o8LmYc19TZEZMhhfRh6tga/kBAFFYKVYXFo8a5JIRvaPSC072a7pH5IwXGqeO1S7w8kpy/OuMvzkjKLHxqqvTPHzOoikCmFnsejaPegV/TkMTJgzU4OJqBdcuKEBvoxuMnx3D9Detw27I8FYeuFCZMzAWQvNLBZ9ZRtkmSk0F+BkmynvPeIF6r8qPbjnbjlUZDh70QtBuv6VNytKadImJ5NuSpO2Wv2y7BK9N7//334+DBg/j85z+P0tIykUc/ygucTodxM0uY9RbPTCMRq+E3pxFsJLTUWV5qGML1qjYZonNIIe4yXKcf3hM2cXeIP/q3ORxqKO8QciXB8vUol5mcTrCEki8VxeXkuWISj8gksYuDsuf0BsPxxFsSKdPJMJwu4I7sTDOJV9tTBqcTcnMzMdDaiZ/sOI17j40jb1kV1lX6UrGaMDG3wLqbTlzpRtdt3mu/2pBo6a79sc2wraUb2k3LUyIMiH9lBFxJwLgNAmUcBuFSPu2n02VMX+hOwRAxrelqoxyU+3RaZxtzRq0yMoOZcq5qrzKRmZXa4VxlbNpu59pdY9qvYfdSmXy2UKSHZGXgRsPn+9U/zXspGeeDWm/lonn4+Ns340/fshZ/+rb1+MMtlSj1GrvGv1o5JkxcSpC80usmNVSSpCZSQrcDPmv/mlh5JRkax8XwGJrpHxSwfREUQ7+EGgUq4hRiVTYGziVRw0XZpex5T0Po9qv9qftU+gjtV8U1y5hzrV5nUjouZJeOdPdX8ns+LibxUZLT5URFeT7WLizA2spcFGeKFn0R4zBh4mLjLCGJYfvRGijbBslTtykSJw3t9FXb69EoR5hUWPhstC1DDrVTrvDRcfB6/npY3Ra11qpWJqRd04lW/p99NsIY/pSDYWNcXhsdzAjM1j8DoCbN4QphEqyJywWa5DSJ8ss+7/Uz3dU0mRhj9GeMOmlPPyQ9Xkmm9K8JkKRKw31kNWFrLtSUSDAsw2gSJniv4yKJ6/AXgiJaFW76OhdY1mSAGQIrnq60JkzMZZC4dF0lOWlC49pYTap6qE/ynCZTfa4XNUpd5xnW8K9lGuTJMOJPNFr65TcSddqsGD3dpwlVg8+UbcQ3/esw2hskasRp3Bt204bxGumcbZgsYMLEGwwkIU2URDrB0uh7EqjWLrVmqo0mRINYp8mU87HJpPErL4ahPxrtj1sVyuP0M93S3BURp+Rrd31vQGvCRjovRKKG/2kz2zBJ1oSJNxg0UWqQcDWmyWyawOiuNVMSmLYjKMfQMKc/WBlmmnwZFedkSboEyVnHr9IiVy1XbFLX6fgNedqPEZ/2b7hNu6enf67AJFkTJt5g0GRJQyLjqgBjZYDx6yoSH/1oTZXPelpAhyPozo9chCLLNEMyVJcUGIRaJcNQDq+aFPVBiATt0klYx6Wh066h00doe31VssXMNi5LktW96GyDhavSkl6bBHMlfSZMvBR03U3/2aomPj01oMmQWiwN7UhavOd8LQk6kZjetpRh6a5POjCI1iBcutEwDA3j5Z4iJHfGpw01Yh0fZTAMZWjDsOnPWm46aE/Q+ny32cBlR7IseBZELBp9VWSmK1I0Lj2xFJAETrm8Mowt2aCOoPEHQ2KCCEm86iRbkUt59MNfhmkoOzHhqFSeNHsTJuYKSFSavEiImhQ1IfFDl4aeW9XkprVeox0ap8vyI5ZBqmxvhh+6Ux5JOl02rwzDON1ul9p0hoRN43a7xb+xXwFla6PTSqPl0VAO06ah6PxsOL6n+eHrFcHMOh+xeBThUFQILyZPr5x8rp0bHxrBU3V9GIsKKcvzqwF9sYBikTBOn27CPc804GdPNeLhoz3onpDeWAo3MhFGICo9cKoCEZPSAYT9fuyV+AYjxrIWEybmEkhU+kqy0nWU7Y2ERqNJUq8s0G3RIFVjOE93thFlUv5JdZSp/fOqyY+gH95TviZsGhKrTgfjpB9NppQvqaJoZW/EY8jRaaG/dBhrbQ3Sn23MGZJlRuqTE+RB2Rmn1aa+WHJYImYyMoHjx5tROxiRXkwKRw1X2NNKj8awkrksLJ4uqyqKPA90deMnexswEJFeeZJaaCourZFqo+JLVThexU9nXSsePNaNHn8Y/sAEDh2pxr0HOzEYjOD0yQY8VdOPmJQmSZfyWBP4LqEI00Z5fDbSxzSRvhmHcYRGKg0qHUZl1fGbMDGT0KTE+kaSIkhYrIMEiYx+dH2kmyY0GmqQ2o8ycp9ed2mX4kJFMjocZTBcel03/E4v16I/PvOq3bmblj5EUdsTOqyyS4VT/pXhvRFmNjEnSJbzOtFwCC1dI6jpGkNvkCfTypBDzED/GGo7RtDK0xSkYALDo3hyVyOOdE4gEEsiGgqileE6RlHfP4ER0XIpLx6JoLt/FDWd4+gbDatNX1SJTyUMe5HZPhoRzVj8RsMYGfbDL5qnLr4kj7qIBHB0byNsJYvw6XdswOfeuR7vXpeP7p5+tA4Mq2PDn6oewGggirFgCP1D42jpGUfQYseGBYXItiYx4Z+A3x9ER7ekT95tKMi5J+ksEmH0y7vVSbq7hicwOh5BnPUkFb8JEzMNEpG+auIiSRG0SydNQvvRhKvDafIl1E9bz8pN2YtMasAEnzURahl81vHySgLWz6rN8m+aH0OGulVkz2ctdxpGerhF6WxjVk+rJUg4iIew+0AN7t/ThV0NA+hM2rCs2ItAbzd+8UQ9njjVj+NtI8gq8CLU3Imf7ulBx5QTKysd6D3VhHtf6MGe+j481ziAZKYPy/OcaK/lAYgNeKZuCI29w+i0uPHWlUUIdXXgR8824+kTPajumUBJYS4K7GGcPNkNvyMLxdl2cC/xREJ61dgEzhxuRastF+XZNvgyXZhXkocFhR5gbAA/f64D9WOTWFKSiVp572ePdOO0kH80PIHn6wZQVuJC09F6IeI+HD3Th6eOdaI3Kemel4VIbwd+9lADnqztQ3NrH6obJ1A4Lw/5LqPimTBxKZBOTPqe5KrvNdnyWZt0LZTP5NHzSY7PJEj64/DfIEP6N9yNcMbcKe247wdHj9qeV8atNVHaafIlYas0cbVCaq+Turo6dHV14aqrroLXmyn+p2Vpgp8tzE5rThUQ53GmZJjcXluPh5ti2L59GT50ZQHGahvw2PEuPHewCa3Z+XjfLUuwLjeB+r4J5M/Lx+Z5PlyzugjFGWHREJO4cssSfOTmBVhhGcIBIeS+gSE8t78NlsJifGBbCbJiYfQFLYgOD+DBXS1I5hXiD6+vRKm/B/fubYMfTixdWoJ5OTZjz1fJFqtNemu3D2uvKEPdseP4zDeew78+3oAjvREU5OVgybwirJd0rF1eimUFQPOpNtRGXLjlqvmY54zhZNswAtEoOtp7sbM2hE1XLsKbl9txXN6puqsfz+1pw5gnD++WdBT5h/Hw8R70h+KqwpkwcSmRrk3SaGiS0kSrSY52JE7eGx/FjKkD2tNocApMKwwMrzVgrflqv4yS02180v4pz4jTmD6g0enUJK9PXEgHZVAeD0udK7gkJMu5VR47wRUB/FKvvrzLMF1yTrTFKFpEA/VP2uAPhjEakswb86NGNNMeGeZ3yFB6ODCJq69Zj3etK0VRngflPifmF2ShpKgMd7xtLa6qsCIcjMCSsMIbjkqP1o2RsAe3bF6E7asrcfvacsz3Av19wwgmsnDrxipsW12Ft2wuhr9nAP2xDBSKhlqQ5TyrefPnfhk2J5ZfuQlfe+dSbCuy4cTxFnz5v5/F3z3ZhrDNhao8B8oKfSjy2aRHdWLhgkJsrBLNOHXoIj+CUc7GpZXYsrJE4ixAFaJore/HM6OT2HLVPFy7pgo3X1MmGrQUhdSX9EpqwsSlAusdyYsfoXjlhyj9MYrP6QTJFQGaeHnVhKtrLu21X4JETG2S5Md7TtGplTtiYZCz8UFNnlRcmrAJ4/uJQbSEvtIPjQbtlZMYw/5cwp9NzDjJMoMSyQj8A6PY+XwT7n62DQfaAwiJPfNiMhFCb6cQbesQnjzchocOD2DYU4iVS8tEK1yIivA4fvqrg/iPnQ043DoGf0yG8ZJ3zMBkLISjR1rwvUdP4Z5drTjcGUFE3CITEcRcDuR4ZMgBK/JyPcj2TiEUCsGd4UK+21iikpPrhi+SQCAuBaJ6v+lCUQUrJpK0YM3mtfjW39yOX3zhOnxuqw/Hj7Vgb0cAFmtq3kr+W70O5HqFbClHhOkKYM2wozTXDjtzWuwc4iEoGmvAZUNOpl2d/eWTdCxxZcDG91KhTJiYebDu0pDYVHtKERzJkaRH8iSJarLUxEry1WEI3nNUOl15DQ3X2HUrZSVQX/pFPuWon9KKkf8pmcZHY7ppvwyq2xHl6PQyXv6iTNtNY3quluEMWWkJmCXMOMkSVsmQkD+Arr5xNIvpH4sgKe9uFJIUrmTI2q1L8fWPbcO/feIq/OOHNuD21YWoWrAQf/vRbfjae1fCM9yL+59rQrufczGScOsUxrpa8f0dzfAXV+DzH96Ej23MQp64OVxCXrE4QlGRb5lEQLTcUETsnQ5EkzFMxKQyScz+sRC6eBqCmFTZnAUrTmhkBI/vbkDtWFzJzM7x4forF2NrZhKjEzyRgRkoIeU/q4RRLQTyXnw34+1EW09ZqyexdzpFG4hzBYL00hI2FIihLyH5IILOT4cJEzMB1m99JYmSkEiqXK+qn1lXNbHRH4mTV6PdGkSWTsB8JvkZu20Zz3oNrSZHDdU25Fmnw1gJYCzXMk7DlbaSRqiabHUHoGUxTDpoTz/0b8iZ/RY14yTLTLBanShfUoU/fs8m/M0HN+LO9YXwCeExmzKcmVi+Kgc93X042R1E79A49h9pwtGOIRw91Yyn6sbgKC3Gm1Zno1KIzuN0Y8qRQKOQ9cBoBNHCLFy3PB9T46M4WD2OlsgkcguLkGuL4GB9H2raB7Gvth8t40BhcYGkZQL7ZLhe1zGAA3WjyCvKR6kTCIwHEQgbS7oIEuOkEHLDsWb86oVWnOwcRUP3KFr6g8jn2V7FPhS6rEiMBdHvTyAhAYT+JaQMdVjA0ouQMtkj001XEk6dZBdkYaNjCtVn+lX6jpwYRHtAKpRRX02YmHGkk2M6cfJKo+3oT7sRmhT1D3X4zDbD2q2JUrUhseBzuiylcNB/Koxua2wbdJ9MUg6J2kgX7Q3D5+k0n5Wn1sIa6dB+CcqlPWWcfwjAbGDGSZZQRCu9j9NhleFyBjwOfsFndjLnnFi1aSm2Z4bxiyer8d2Ha7CnLQK31wVvRgxHdjXie4+cxhMtcaxauwALCjJRXuLGieo+9NrycHXpFHY+W4OfP9+FjMJieL1WWHPysW1jITrqW/CDp1rRknBgcakXucXFuH5dAVrrW/Gfj9bh4IQHd1wxD7kIo6a6C80jMgyS9LKQeOSMNz8f73rzGngHe/E/O05L2k7h4bowNmxcgvXlPiwoyUG8fxAH20PIyc1GnptfPadgE22gLD8TTqkUvuxM5Ge5KBQWqwN5OZKOggLcvrkMgaYO3LWjDseG4qjgMTsSt64oJkxcCrC+sb7reneWNOVZEyYNYZCWYdJrKf1qQyIVhjOmA1T4aYImGE75ZetPySIh6l9nGXIMWjLcDa2UITWhErRTUwopu3Q3ppfPKj1CxLONWT9IUWWsFExf7wAaR7ggHyjIy8SCYhcskQia2ycwLJZujxuLyrKR78lA/8AwGocmUVWWBWtoAi0SLsOWgZJsB0LxSVSWZMOdiKKpL4DBCOBzWWBzO7CoKBv2WAh1PQEMh8Q+x4NlpT64pqLoGwjB5stEkc+pPlYRRgVLoKdzEM1jcUmlBZmZHiwuz0aOKwOBUdGc+8LI8DrhtQEurwelPhfCAT86A1MoyXUgMh5C0iVys+1IRkLoG4zC4bEhEAhgxD+JqGUK0f4OPH3agj/88GasKnKqimXCxKUC67lBiMaVc668sm1Se5wmP4Na0/3Rjn5oJw/SQgwC1OFJhJwy4L06lFTcDcrhVASlnUucPN9PabyGo/JrGJKukQZ9LyEYpfKrD1L83Oc+h7KyMhWG0wVMG88JnE3MidNqmXHGEg5JitxbJNNU4cqjkcGkNzFCPrrQSX4ZFqPQ+EMDLgXLSH2htIgfluCU+JuSwiboz6gMEpZzNarAGJ0x/8QCMZ6NCqJB/2qjYaaNWSVudOXpB0wX987kVzOmTYfXaaYcVgAtk/fM7ED/AH780Ckk5pVjY7ENp443Y7B4Ef785oUodBrpMWHiUsJoU9PEpuugrr+6XvNKO7Yl/tqSV1ZqztfSje2dbcloAyTj1EqblBySriGL2qbRLvmHduoXXbSTe0XKkgbKUV7Y1tWHaYYwNF/GLV6V7AceeOAckk1/H66GmE3MemtmhhKcTuCO6vyFhoXbp6UIlZPcxtU48kL5lavVKs/iRmJVz9yNXcLxXpGgFBDJVu++rsOqQicZq8n0aULjZL0Kex7BKf8qvIThvYQ751DHDEm3VCw9wW/YGV9keZ8uk1dWGnd+Hm69ogQdNa34/mMtOOMpxyduXGASrIlLCtZFEhEJSZMa6yztqKVq4uRVf/RKv/KHAInUUTOs5zQGufIHAKnRmDRvrjww3AwrPXdLP/wYbSzvknqfIlhtaCF3qXRNp5VuRtqN+WGCfuiu3ehPp2m2MedaNDOLJh3qWWX6NNL98P5CmXm+HA3t/6Xcz4cu9AuFebUyNEj4TocDy9Ytxz/9yc34yedvxL+/cxWq3MbWbiZMzBRIPDQkIxqSEcF71j1NkHrp1rSCY2w9yJ2z6Kafp/1OExsJl/e8qnYj8mn0igGC7nrozx8y6Gctg0ZuBUabN+x0eg0/Bh0YGi3lMD6C70IYsg1Zs40ZbdVGppi4EKgNux02eF12eO0v7lhMmLiYYFsk8fCqTTohaWhlheRJd7ppAuazJmQdVhMi3TXU+V1CwunxMQqG49V4Ts3jCpHqsNwERvmRf5p0+YMeguEoT41A5R9HrcZHMeWcutcashE3zYWUr0uNGW3ZfGETFwbzRk13mHlk4hJAE5Cqd0I8+pnQJEdyIvhMQ3etIfI+PYyGtk83DGtokGTA6TCaoOkn/ae4Z2WmeFrHT3NBpIiahjKUlVwoh3YG8afJnWXMyIevHTt2qA9fixYtUnYXOYrXFXQlIcx8MnGxkV6/LgS6k0g1+aWDz6yT51+noe1Tj2nQ/ozlWNOESKO1YP3MuJVdKswrtQKGIbRMkuoDDz6AA/sP4Auf/wJKSkvUO7EzoRt/YDGbuOgku3PnTvWl7+Mf/7haXaAzxIQJEzMPtrdpgnv5tkd/hsY5rZFqOxIU72m0hqvdSYh6/etLRUF/hBFG2ahngnY0mmwJPjMe/lBh2qcBnQ5Ca6vTdpQFtaLp5MmT+NIXv4TyinK1BwOnPOhHp3+2cNFJ9pFHHsG3v/1tLF++HAUFBWczx4QJE5cWJC7iQm3wfDf9TNAu3Z332mhiZDB6od1LtfFpGeqSBsPi/LjV8F6shD7PDZRyJ3R800bsMiyora1FQV4+vvLVr6CkpES5nSN3FnHRSZZTBd/61rewePFiRbL6RU2YMHFxQY2T7UuTCJtyunb4UtBEdaF74vxn7ed8e+J8Obymp+f8sMaVfs4lQKZb+yH0PcNrQz+8GtBXw9+ZM2dQUlyCv//a36O4uFhNF9AvVx+4XK+z6QLOyT788MP4zGc+g/nz55+TcSZMmLg4YLtSw+s0ciJh6a/pr6bdkYTO98dnTdTpUwaEJrnzw00TnwE+My36oxmh/evwegjPjkJ3FloOw+p4tT3v06cxyK3c85lgun7729/i8OHD+Mu//EuUl5efjY/QcmcLM0KynB/58z//c3NO1oSJSwzdnF9Ns9bkpa8aJDkSGq900yRIpMvXdvqqf0J7vkzKIUiGvNdXgn5o1Blh+p5uvFc+DJz1J268CvUavxBLufFntfv27cOXvvQllJaWnpU/FzBjKWFG6sw0jWlMMzOGSH8mudGk272U0f7SwxAkLa2F8l6D7ZmgnbanHUnY+LHBi/3T8NdjtOd9ujvvGVbdp571MJ+Gz7zKjbqq8Cnq1X7OarYCXnV6eJ0rmDt0b8KEidcMTYwamkBfrSFITtoQJCk9FaHJjG70r4lMXw13yjJImnb6aoQzph00IdLQXROhlkly5ZX+aB+XZ14VgYvh3ibKr9KWRY7twr/YZBjK4Vys3kNhtmGSrAkTb0CQjEhsJDGDKKfJlASriZHPNHzWBGYQ4zR5Ug+lvT4qhjJ1GE4f8ErQL5dW0U+6P8OvoVEzbsrXaeC9SoeE57N2Z9gLgW5GuoxnI32zC5NkTZh4A4GEpsmNICHxXhMfSYpXQpFbyh/tNAny6nBM/+yWfjQZcn8DQstNl60JneBV75FgkKYRN+315jS6E6BheBI0TSQcUVpqLGYcg6PBsFqG0mIlzFyASbImTLxBoMkqnYwIEiKNBu3pjwTJexpNtprUNLHyyrC8p6G7ls17uut4tZmWaWjT9EPyppveo5YyKNcu9lqr1fa8Gprv9DvpdGk/7AT06oPZhkmyJky8AUAiIkho6UaTkyYvgle60Y7Q99Q8SXbpZHm+XI100jvHTaLQz1yN4HRwk3qDnOmX8g231HRCSobhRrK1qY9f9MP0aM2a4QgdljJ1+mcbJsmaMPEGAAmHZKSvRDo5EbynoR9eNYHymeRF0tPkqZ8pQ/vjPU2633R/yo/80/b8iJVIGtMCGtqfToOWacildj15VrPV/nQYDdrNJVwWJMsCudgwKgbN7ybbqFYvjVdyn2t4xfdJNaR0XMjOxNxDejnptqRJ7HxCojv9cw8BRWxyz/lSZSeG/s8fvqswmjhThn5oeE8/6X5JrgR3oSPhEpooGYeOl351vFqOhg5H0C0d9D+XMKdINpaa8J5MxOTJyDhmIDN0MmmstbsYYCHEE8baPl3grwWq4JkmuerJ+fMLlktOaKfdtF99/3LvwiUrWv75YDjaUy4Nl7qoe7n+XlDp4nKZmDJq1/lU/Co+eWY80xD/qbLR82qXE1j23G4vKXUtIca4lzxM5a965/PyVOd5QurpuXlx6cB08ePPqwX9s6zkZV62jOiP5RhjWco/9bNX/heGsHJ5FjXHlMKo84eG+WBJEa/eA1aTdzq50i/v1bPVoB36VfIpU+51nioyTZEu06QJmO6UQ2rgybYv9T46vrmCS06yZzPmRZkghRaPIjAaRPtwWDJU3MVPIhFH0D+BxtEoQtFXX7leCoyWMhPBELp6wwglXjs5cMgSiwRR2zOGwYEhnOnyI5gw3od/efbRVDyCzl4/QjyoTCoJw2Aqgd6OEcjrITmVqrHnIRmPwcJhlOTThVIWi0sjkMoWj0QQFXIYHRhA12AIUd0CfgdEo3HJ+zC6m/vw3OEuPHm8F0f7QmBzY8c3KQ10kh1gqsyMPEwiFJhAW+c44vKO6UeBzHUk+CVbSmpwYBjPnejBU8d7cLQjgLC8grFTvzRmyX8e665hLE+KobV9GKMhdoK/Z6f2O0CfIpCQuvZqSIR+JsYDaBwOIai1xwtor/RHuYoUpe421HXi8cPteOpEL5qGo5i0UPuU+FS9lDbJQNq/iJ0YHsHxrhGMxwztV8snQSo/KZLkVRGrXGmVjIUwIG0nECcxGn7orog7JYfkrcM57dN7ENjshv2FwPfhB7S5QrSXlGSZUVEhyqgQhG6wGiTVZHQCjz+wG4/WBzAh/ng2kDjg1OGT+NozTUJkkoGi0TLzjAyUa0rb0HZ6rV66YaHpXpCNwyqF19veieq6AYxHDHJI9y9/lB3lq78pe1ZyziElkyHseeYYdtQNY3zcjz31vRiLGHNLrIxSPTDa2YTv//wwqoWsjDQJmQXHUXuyHa19E0Jf58bL9MUTUUTHRrFzbyO6QlLzGCgNapmL1OrRwRE8fboX4+LsHxzG4dPdCIYlXZPTmrI26Zi2M+yNZ6YjibbmDvziwVO4+5kG3P3kKXzrV4fwaM2QaDYxcevEwZZRRKRjMMJQuwDGurtxprYPYWn00gxSbtPxpj+n278SLuw3TUbKpHth3UoPp+9pVMNN3bNzkEqArsYm/OihQ7jryTrc8+RxfP/XB/CbQwPwR8LobWnCniPdiMpLTk4a5SAiEB0fxanTnegfixg/A03JpKEfGsZ+vj3z6+XwYv+Ukm7PkUoSYf849h1phOgG8sJGnZr282LDRNceO41vPN2ATglDUjrrdla+uhVHyb9EGMf3VOOeHTX45e4m/HTnCfz7r4/iYLtfOv8wzhxvxAvNQ0iIJspz7ZivNmGQidEx7G8bUW2AZEklhmkmQeoRHQ3bBk+O5dlgap/ZZBj7dp3Cgyf61SnTdNcErQlUhZN4+ByJRZUdCVbPyb4U9PKwuQDrVwWp+4uCpqYmNDQ0YOvWrcjNzT0nMyalYoRGRnGmzY8plxNZDvZWzEzVRJU2deZkJ8LF5dhU4ZECFDchtQ4hgP1BJ25dVgBXxhRCE2GMBqMIx6dgt0pI8RONJhAW8vaHRYuU53gsjolIFP6Q9MScMBcNkWEiop3YbRZ4srJQUeZDlsuqiHsiFBF3Dh2TiIl/ixTslFSQcYlrTMKFRB7tbOI23NGGh08Gcf3WhVhSliMmF7lueU9pTCEhxwDTMdKHw3URLF1XiULnlGhJnKdyoKQiH0XZDkljXCpWApGgyA9LvKIlODMSaDh5Gv+6ZxzrVpaiPMuhKpeucEmlDU/i2af34776ODYsKURlQTYqS7PgsVsQlzxgJzYu6Y3yPaWS8RRf5o8/IHkmecHmzuFfUnr6oMQbpXYy1oN7HjuDqUUr8eX3r8PbNxXC0dWBve0JrFyUIw3hCHb0ABvm58ElpBONxCRv43D4fKiqyIFDyiQunURUhrEByccAOy7VAKVcJQ8nwkZ5sROKiz3rPju680ENk/ky6g9iPCR5Ip2VTeoFG1mC5Tch+SrvkOQBmFNxKW/JQyF4q0XqDstQVFG+X4aMGKLhKEak7KTdwyZ1xCL5EBX/EUmnfTKCnUIgza5y/MV7N+HdV5ahMDqER0+PYeHCXHTtrcWezgwsWpUHtxBGhO8l9WrS6sCCqnzkeKxq+oTrNIPqfcVN3ofaMfM7JvVuRNIaiQs5yrMkUI0zeAhnOoQ/pE4xXVEM+0OYEP+ScVJu4iZlFgpHMBKQOit1knW2v7EZv93dAfu8Isz3CYFJ/RkJhFT8rNeMn1WFI6Exefeg5FVPexcOTGRg+6Ii5FqlHog924joikbeqjobk1iB8FA7/vvBdiy/fgM+e+dK3Lo8C8M1LWgIerCsOImfSx1pt+TgynlZ0iylHsgIKCB1zpXtw8oSH7KlPSelPKiIsNOfEDervAzrAYs7JOUzJnEpjVze3eZwSb0ZxZHWCVRUFKLEy+PADWLVShHJUhOtngfm8q100G9dXR06Ozuxfft2ZEnbnisES1wyklUdplS48e4O3P98G/IWlAuJiJvkKud0VEOKhlB/phexkjKsK3cbhSMVprujG0ejbty6JA/W8ASeeaEJT1QP4njLOArLffAm/Ni/rx2HOgdwuCcClzyfOtWH/e1D2Ht6EIPBJKZC43joQCf2d09IulzIGOjDqZYwsguzEOzvxSP7m/Fcwxhae4dxejSMilwPxju78fChduyuH8YxMWG7Gwtyp3ByXyPq3UW4bW0hIn3deLLRj5JCDyyj/Xjw2TbsEs22q28Mg+MOrFlTgvhgH475J1HqjKL2aDf8Di8iQ714rGYQne0DeFbS2hawoCIzgecPNeHB0wGUludhtXQCLiFPdkLMP/b0iYkR3P1UjRBgDBXzcpATHkVtt7yzO47qvS042jaO/ZKHpwdCyPRlIs8F9LX34vGDzXi2ehid/jjy8oWURRs/VtODwYxMFCCEJ4/0wFZSjLVlXni8LpQXupHvccM7FcCDu5pwpH8KiyQ9cek89p/ux/GGISGSEIYG4sjKdaC+rg0HW4dR3TSIZ08MYVS03kXFbgT6+rDjQAueOT2C9t4hVA+FUJSfjSw7h4jTDUE1JHnL/o4u/OaFVsnzIbSMRFEh5eMRcmhvlXqzvxN7xX4gYkGpD6ivbsajreKnJBPJ/m785sgAHNLgs+MBPL+vGU+cGMDJ1jF48rwo8magpUU077AVRa5JHDrShgFfAdZVZCHf50VxQSayfHZ4YkEckPifH5hEbpkLlh6pQ7U9os2NIxQJYrDTj7jThtGWLhyV+nKmrh/P1vZj1OJAWa4bGaEJ7D3UgEdPDKKuewz1/aOIZvpQ6eUw/Vzti/PuUZF54mQzdhzsl/o7hoDVJnXMhdDwEJ490orHjg+gdiAIr8eOruom3H98CEMWD1aXZqDtTDseOjyAQ00SVobd2Xk+lLkt6Bal5Jd7WnFY3r2tT8rJnY1rF+YjJnXuN3ul85QRXNfEFMryvXAlAzh2agBTnkzYQkP4xbFhLFlWjvm5TuTkeDAv34PcLDf8/gH8Rgi+N2LHkgIHaqScjlUPoK5PyFw07NNjMeRlAY0nWnFctNpjZ/qwR/Il7spEucgKSDt56LkW7KrrQ1/fODoHYvAVZ0OqG9pa+jDoEKIudkqnYygU5A1NqqwbvCotOE1p0zifZLOzs1MucwMzSvckToKZFAlMoFMyt7Y7gH5/FM1dI2iUYfMoe1Vxp+ajM7R3YAw17aNSkKM43T6ClsGIaCjiFpHG8/QZPCVEWpDnRKyvHfcJqXWPDOOpPXXY3SMFLT18oL8Lv3i6EW0Tk8jJEAJ5+iR21AdQKA1zuLEV++vG0NMtxHdmGGOBAPbvb8KpoQSkPaP+dD2+v6cDQ+NBnG4dRH8iQyqaNJ6Rfmn8TWgfGsHR7rCQUBZyHMBobx92ytB9OOjHoYMtOD0cR1GODWMdATQHZagkWozb7US+2wZLUmQebkXLUByD0nH86rl69CTsKPHEcWJfPQ50huDLdMInDconDdki3b3egV4VlGhCySkrcuku/vLcdgxIZT8olX1U4n9ip+RN/Rh8oikPtrXhkVPd6B0cxhO7pVMQEi/OsqDueC0eOd6HpF0aUZYLHksSziwvNhR7UfPCKXz13qN48KjIy/Bh/ZoyCSPpEQ2DfkWxxsH9Z7DjzBA82V7EpHM6cnJAhomS/qM1uOdQLyzyrk5prDuOtKNhaAx7j8nQuysipJiB5hoZoj/djM6AjDbkvVjWGtTDgqMj0gHXoz1iRWnmFAaau9AmRDvW24/HDnYhmOFCpZRh18kGPFcXQDQexLMHavG8NNz9B5pxUsbElqSQ3J56PNo4Aa/0MJG+Ljy0qwVdQa7JtCNTNEKrzYn5VVloO92Ar//PPtx3pBfdYSc2L6vAwnzJE48N+ZkuZNvjOHmiHr86PgxrpgeeyQAOHG5H51gQjceace9zXYg4HXDFRvH43ma0jkXQVtOKnUKwdo8T8YEu/O9TdTjUx2GuQR4aqtOU8j0pxPlEw7gQmhvZiQB2H2rG8d4xHDjehKcaA0KEDiHHflQ3j8IhZJfrlbqU7URocAR1TeNwZruljCbRdKYBz0i9HhmQvH++Eb1xGwodUbT2jCMYsyI23I/7n61HV9SKkqykdPa1eOzMKIKTFni9NlFoJuHNzcfGPAt2PH4UX/31KTzXOI5oTgHWLM9HvsuObKl3OT7Jn/gEXthTgz29MeRI/NHBfuwQ4h5mh3G8WTqCEWRIR+0KDePx/a3oGB7Fvj0tqB+ZRHG+E02Sd7+UNtYjmq1HOrg8RxydrSMIS/0mZ2hDPiCB8l7PzV6OmFGS1aTJeRn/0BAeeuYk7nqhG/uEQH/1zBn8WHq2xpGE+lpLv2qaRoZmuw824XuPVuM/xfzXjjP49alRhJIWREmmojVuvGoJPvSmZfjwjeWYbOtF62BUff3ctHIx3rGpHEWeDGRKb/amLcvw3qtluC6V0FaYj3dduwg3F9oQHI7IMFkamwxzx4QomroSuO7KFfjQ9Ytx2/ICZEs64qJ1rFy9CB+4dj7Wica4qNiFIRnGDo2E0SfZli0M62SZUxOX63jvIJ7ojOCqa5bggzetwC0b8jBp44eCDJSUFOKKEo8Mz0iYnMSX95R8cWR6sXWjxHH9MizIDqMmCKwSFllQlof1MmzNlKGWcUaShhCFT9zEz5J5BVgrVzXko4sIzXB7sG79ArzzppV45/pCdMuQf9fJRmn8Fly3bZnKs9uXeNHSJBps0o5VSytEI/LAmZmNm27egNuXutHY1ItfPHECX/vJQewUIrPKaGR1ZRaWLy5Q11B0CpmVxbhp63wsyeVIxCDKyWQGCouK8OYrl+Ld20rgjI/jZH0nmnsS2LJ5OT58s8S9tkSGrJOIpXccKXBKJ8yPNC1CJplZ2LKuCu++YZkMi6fQ2diF1n5gvrzzmgX5MlIZx2PH+lGweBHeXD6FHQ8dxq8borhx20KUTPrxdJ1oY+uX4A9vXYEPXFcGa/cAOkZiqKwqwebybLhlmLrtqtX4w3W5QsLD+NVTp/EVIduf7O2DIzcbK6t82FhZiI2i5Uozx7zycrz1yvmSV15VbvwkyVfIryjGtdcuw/u3l6FSOuteaurVvShbvBgfuGUF3rV1HhaIBsu5dOONp8FRCTXZ2jOdGJlyY/H8PKws8yDR2YfDNQNoE3Ici9iwelkp7rxmObYtL0JVeQ5WVWRjy9ICVJUWY5vYv2NjMdZVZmOZ1LXocAANklc9QTfedetqqVeLcV1VDqxTMQzKaKY/6MVbb1iJj7xpNW6sysCp+i6MJ91YvVJGlVKfXdmFeP8da7C+UEZrZ7rwoweO4u9/cRz7u2IoKc7DMhkxrFxUhEW5MqwPWbBQ6s9tG8tRKcMSfvdlvebE37zKctx27VK848pCuMfG0Sr1bdfQJLZcvVS1jatWZQI2zo9LnbXZUS4EDmlXo1HjgxgJNV2LNVYuzChVzShmNOVs+ITdZkV2fj5uv2Y1PnJVGbZU5uBt1yzDB7ZXYWHu9BBA7UcpQ4Jtmxbi47euxKdvX4lP3bYMb1+VDa91ChOiAY+4HFhd5IFLwhRJRavIS2AwEIPH6cIC0UKcFEVikyFimfT4bikgr8+ptD+HaDFOCSdFqpiRH5EC436EbG7Mk+Gxx+5ClRBcuWh8sFjhtSRQf7IO//zgKdxzdBhDMakE8kqTGTJ04c/6lBhjXnl8NII+lxNVRW5pxA5UzJeK786Ag+5qEt4ufo3eWM33ColnluagKNMm6XLC4bEgIkSjskwEWxkuJT8dfOaIikaiNeTJDb+GF8p4bXmZ5JVkQnmRDJujQZxpG8VoVibmiebvEnJZOC8XQUsYAaHnDCkXp6SV6SooL8A73r4F//mZa/G371iMqtAoHn6yHs3jCWNuXBJlkQovwqUsZZjpUJGruIkM0dwqRBv2Sdw86tzjnIJ/eBwZcTeWFfvgdtoxX8b4ZTmcz5QAkl6DnlOQsudw96YVhWjYV41/FE1qV09c3jGKocEJId9h3Ccd87/vaMDzPRb4RIvP9Obg5lX58NcNYSynCNcuyUI8EMKoxL+03IssqUulpUWoyJfOVDpvi7yvjfN5kvf5Bfl4yy0b8c+fvwlfeedSrMsPiRZdh+MDUamP4kfls0X827FQNOJcKUtdHqzXdrsVyypyRbOU95U6WSiOMf8EemUYXiFlkCcjF8axoFjy1xB3FrpdJIIj6GufEGLuwvd2nMYPd/WiI2STkYgHm5aUIn9kEN+85yB+dUI0ToZLdU5Mg0PeMRGewKNPnsB3H67H7raI2CcxOBqEzZeFKqWRZ2GJtDWPU0YDwyHke3PVNICLbUWI2cs56xjrUepHCVLnqxbPwyffux13/enV+NNrS+Hu7cR9+zswyIU98g5qNC9lbvV5UJrrglfaFN9Pf1uxWh1YXJolWq/ULY64xG10OIhBGRmUSNvwSD2omi9Kgrhz227WvWzR0MPJKEJxqfOSDq21Uotluvh8OYP1ZkaheiCp1A6vBwsrC7B+fg5KZQi6elEh1lZlo0gymJmoKp78t4jfipJcrFuUj7Xid8PCAiwrckFNTQo4qc/PAxSblIKZGBdiJgHQLuWHclhxVKWgWFU31Z+zFfwsxB/nfZVCJv7VxsFSa6LDA/jf+w7gewfD+Mg7t+Cv7qhElWhVqsdWsvRf/pEemTkpchKpOSW1zCsVF/NAaaTyeE781ukEp9qPkmV4kfdM9ysw3lK7E8YLUiZdSF6KwAS0S0iUNlsG7CKc8tmpRGWIlhRt1K4yS+JISB6OBnCiph+TbtHiFhZj05pl+Pi7lqIi6kdbf8SQp/5KjCKTxMrspZ1KC42yVylSz7S3yPtx+Q9XQjFb+D7kaQUKEOgpgwzxa/X4cPOdV+FfPrMFd5RN4dEdB/Hvz7eicyKGRSsX4Kt/fBW++bGr8N+fuxFfefdylHmT6BcNKCJDislwBIP8gs6PTBJhQkYqTEwiHkHQb6z4sEha2MFFAqPYe6YH/VMOLBINcuuqBfjYW1dgkzeEM30hxCVtTJ1hJCTzig8E3yV1q74ZiD3zmjEwXzhaobIg/bzYUVvV72hoZcov3cUqLiQZFC32mhvW4OsfuxL/8olr8N0v3oB3rC3GqitW4iufuwF/sjUXbcfP4O9+cxJNgaR07uwoplB7/DT+8a4jOO0sxKc/sEm08hxkikx+32AlYBqZ55OqwjJtYi3/jPopCks4hj5JS0xGc1wJkIhFMNIziL2to7BnZWONtLtrZXT3f940H4NDA2iciEtZinwaShBOVtkiMnSeGPWQI0T1uswAZa/yT9KUpAApB74/P7UxV/iXoxi2V3rTTYJthh+9aC53MDtmDOyNNJQGIIXsyPJh/eoK5Du5vIPZnAIrNv1IQemhh6geBnFIxeC60SzRoCoSMextGVPzuo2NPeiJSg8pPapR0ZUgdZ8kq6SgiDN1r/zxWQwbYo5o2JmTQVS3j2NAtNrq5n50SKOcCE7IMM6Dd795HbbkWtDVPYresQTsrgwUsMbKUEdVklRceYVZWCppq2sbx+D4BGpOD+PMRAIRiTkqBBCJR9X7079Oi55vJVS65Op02ZCViKuv2fxazy/M/HJvwAjrES3GzS/b0aTxLiKHKwYGhsZxtGkQ/aNh1LYNY8Kdi63Li5HtH0d1dwCDIwGcahlCjpBpDr/Oh8IIx5MYbW/FPTI0/NXxAYwGIhgLhDEeE5n86JHpUGQSldFCKBWfzmcmRr8Dr2mvg3gcovHmweoK46hooUNjQZxuHkK75KFTSIJTRJFYggGVf8qNTIRw8HQnRu3ZeOsdV+BTV2YjFJlCfnGOaG1+DIamkCla4/jQEGp7pQ7ww+TxCWy/ZRU22kfxywNdSLgzUS6N9ljTEHrGw6hv7kOXaIe5TicSUa7okHgDI/jlg0fw873d6JT34qqSkPQlOTlelGS64RBtPJSIwB/hsrhz34vpJFR5pTlwdYg9MwuVBXY0Ng+ifSCC9o5enOkWklcrKyS/5X053cBmwU7YlZWH/FILOkf9QsoOuBFHa0s/2kTrbGzuwYm+CDZctR5/dtt8lIpGHxBmi2QkMCDaet3AOOLzy/DpGxaibEr8d/kxkGFDuYwakv4xnGibwMDAEA43DmIs5EJ+SQ6GAoM43enH0Mg46tsCyMyXeiAdFIftJOf+1kZ847fH8XTDGIalY+OqGi4UmZeXiQKvHTLoxGQorlZBqJUgZ/NCiFLen/+MekD76XaYU5CF+VLX2mRUxTZWc3oE9dJhcKQwNRnHsNQNh01GCzKaS8vS1w1mlGTTwZ7JKpUgp7gUN21fiIW5Mnx3GtuiGaA2aIXLLZVNzUWmCFq6RfrLlGGGt7AIb99cis7jTfifR6pxz54xlG+twsIiJzxuGXJzqkDC2WQI7BE5NsqQIaJHGqZbhnfUee0ii0NX1UuKBp1dWIq1KzNx7FgN/ufJRuxq8yMupJKTl4P5eXZUH23BT5+sxaG+sGjTFsRcXqzOtmFiLKo+GnA4Q9LLKZG0rStE64Em/PixM9jVHEKFx4NMkdXT1Y+93UHRkGRo6XFIheI6Q5sQhl1NC8iLyxBO0uWQilxcKB1JEHuqZejYP4iTZ/owLNontSDmCE1VVRG846PY1TiMSbu8uxAzNQjnZAwttW2457FqPCbxb1q+ANeuXYzV85w4crAWP3msBvsHLdiwdh7ypNFWN/RKQ46hcNE8XLshEw3M18frxVTjobogFq2rwopSL8qlkSS6B3GoaRwOl7yTZDQ1Q66VVPks6odL8tgj9qp5ybu5rDbkFRVjgwzhm6rr8YPH6/Bc4wiiYs/lVEPd/ThcP5Bai6p/wplEa0MHfrzzFH7yTBP2Ddtw/ZpFuHrLEqwqjOK3T5zCDx6txk9Fu63vHcbek+0Yzy/Dh968Ee+7qgQ9jR1oinpwx5ZyBBra8JOHT+PXB8dRsLoSSwtsaG/rwz4hGXthGd6xsRSBphaJS8p95xn85tg4clfOx8YFeSgt8WF4dAAv1A5LryfDa9ZH6Qs4ynLL+zqkzF1ul5SZVDhRADjEdcq7210+rNw0D/GBNtz7+Gncf7gf41JgTi6/6urFLhkt+GPCWkI+qj14c3DD1nnIHOvHXUzHw9V48HAPAkkLxqTsH3rmNH70VAMebphA1aJKbJHRn9MRx54jvfAU5KPCGcYDz9fivr1dGEg64JfO2FdViXULrHjsmRP4ydOtODESRabXiZKFFVhTbsVTL1Tj+ztP49CYEzeuqUBeRgjHTnWgZSSJKtHoby7LwIHn66QO1OAuqS8v9EzidtaDvCysKvKir6kbh3sj8u7S3uS91JSK1AO3DDXZ0TulbTmojvId1VA/A1mlJbh1iRenDzRIXlfjaHsEvknJL+oqolG3BxKwFnqQJSMNPbJ5PeGSrpNlQ1LDACE3w56UkUKqB7NL4RUXZ6PY51AERB+cOyzKz8HC/CyUV2QjXwpwLG5BWVU53ra9AgVCoF7RkCtKuVaPv8m2Iy8vF+VFHnjEzZPpwXzRhoqkN7Y7XSiU++ICD/Kl4hTlO5HFhiMVJm51o9A1CZvLjRs2LMDqQrdooaJ9eL24cm0FtizIxfyyAmTGRrGnL4FV8/OR7RYyEY1tUVE2ykuz4IxPIiAa+LJVFbh2RQkWlGQiNiHDQrsb5Vw54POhrDwXOZk2lBRJuFzRnKRSOoSkqorzUZmbCZekxZ7lRaE1iqbGfmSVF6LAzSUtnJuagsPtlmGj+PG6saRE8qrIh1y7aE6NQVQuL0e2kO6CxfNwiww78zxuzCvOgi0Zh3/KhQ3rFuCmlYVwTclwUYbaFsmPeRJ+QVk2siWzh0WDttkdKK8swR0by5Anmg47sCyJ2+XzYHlVPhaKVlSRJeQq5VggaS6WfMqWeCpLclGR7VLl5ssWrU7KKy9LOgFpTTEhgRJPEn4hp60ryuEe78axnhgWLZQOg1VByMrucoom6EGIml+GE+WLK3DDMq4rzhRZTsQik0hI3i4Q+5uW5UjFcGDl8iqsKfEgT+LNl3fJK8jDqsV5KJasGo9OoWReKe7cvgBlLmBkPICQ1YnSbK+amy7OtGIszC/XMjopKcQt6yowT8qFRGGTkZbH68GK+UWoEO2wKCf1Xr4clBZnojjfh0J536JsKReppd5sn5SDFz7Jq2wpqwjsalWGIyOOBdKJlYZGZRQxjoVVhZAo1LeHKWkL+bnZKPVmIBBKwpmZiSvWVuLKhXnqm4LHOgl/VDp8Sdv2NWVYmCfKhnTEQu/YKKPBhVmSftHuC8uLcN2mSqnjWaiQslld6UOEa1+92Ua9XVKIRZLWFRU+xERrn7R6sWnjYlyzJBsuS0I0yTjcUl4FedlCxD64ZCgZlHeySwe+fHklti/Pg0fKOtPrgkWUnryCHCyW+rJQ2mmBh1sKSj0Qu6XSGeeIYlFWloPCTLsM/4Vgc+T9CuRdsiQvRMmYsjlQ4OOIyI2N60ph9bPzDmDp+oVYmS/ypSMjR7wWnL+Ei21sLsEiKv1FVdD1QYp/9md/pg5SfC1zKuzFmGFEOjmr3/FLKrlHJBc6T6n5HS7xoKKaIbTDoQl9iq4q4Qz/Rk/K4uKvy1hw6lc6Elb9OIEB5Dk03Isdz3bDIUOv+VlJHD7eiNGCKnz6psXIkcaQkKHRFNMi/rmkyiqkPd7bhp8/2oGl167FDUtyRMM1ZEtK1RwYf3rIuDlfpdIj8XOeN9XBG32L3DDdnK/iI9+b87Y26VBi0ajSEIKD/TgoQ/jVV68QgnZIZ0OSTeVTQoZs1AD5T17S39OIu37chg3v2Y5rRWtg7vGDozEFI2mKJzDJRfwSGe0J/vCCw0RqIMw7Pqt8FTvmj1OIgOlTv8aT8PwxhMpTyXN+9qMfvg7fne/FmUBbKizzPzA6hgd2NWKyoBibi6ZwUvK2yV6OT7xlMaztjTgy5sL1mxfBp16LH8REi5E4YjKstjDPBeoDI/NW5Kmfk4od5z45p6z8Kz+Sx+LOtDM9NiH1SSm3OOeaBFy6xXrAaReOB/i+fGPWE/Xz5inmA+c6mV/iwLjEjcYmnYsqI3kveUvJe0pkLITYp/zTZirqxz5537qED2uXZqNfFI4Xeqbwrjs2oXyiE7WdwOYrFyJPyFeEKglGnec0gpGffG3GqdOgxi/KnsoJT4A1yoIjPBU1UyXubAVSMCqtLA/WJ/ULQXnmL6yYQt6rvGV9FVn8kKnqh5JhtBFKZJpUOxF71l/O5dNNtRt5f/7AQtV3kcNVEoRRByQNcmW6CJVL8sAlXv/7fAfyFpZjUY4Fh2RUNZBViU/eMh+NB45i94gXH7ltNcrdLLvXfnw393J48MEHzx6kWF5ennKZGzBKeo5AablCynrJhjYcjpBgCVZA9px8ZqOw2gz/XKjMsPRvuHMYS0KwwkGZvKc8qZzKLRWH05slml8Uz77QgO89Vo825ODmdeXwSUOlbLvE4xBScoh8poO1JrOgFFctz0LrYFD91NcqlZCNgJompyP4xd6p0mz8YktNTSh3oxEwLSrNIpe/fFLvKM8kWPWOck/7mGgymXl5yBE59KNhvKPxVZuyVe8vGkJZRT4KhIxJjkyvHjlwGsau0sRhrZFHNMxDpkH7YXrdLuN93fIetOf7Mt028aveS4ydZXD2HfS9hJd7huEzNVO3x4kyewLH9zTgP3bU40wsF7dtqESBjL2jUTtKcpxwsymmppz5zsxDplHl+dk8Y7nJM4eifAex57PKc6Yx5c46wPeWJ/XsFs3Y6TDSRD/MK+aNqjf0L+9CeXwHEhjl6bj4bmpInMovo5yM9zTKyigv5Sb3/EqeYfegsNCG5to2fP/+E3i8MYpNm5bKUFsISqpOnpSP+nGJhNFgeJvUM6bDMKn0StmxPFQ+iFHvKe+l8jxVFnRn+TGMQ9JKhUPXc/V+qfSpD3JyVdNxkic2GSmp1SviR3UekiSj/rKTMfKAecXpK8qkneqQSapCpA5JL8ORWM/WMYaXtOm0U+NlHSXBOzN9KJGR1lO7zuA/H67FaeTjhk2l8E1NYHwwAxuWV8gIkh2ZoUT8PiDP08wlzClN9rWAvS2hCvV3hOqxxQQDExgKxGUoaoVXiKEwWxqnVJgLQcc7EQoIwTqUVuLk5NJF7q+oiSRkiB+JCtFKmhRxvQToNxoJIxwG3JkuNUc722A2TU0lEJkIo3c4iKg0No/HJcTqUnNxUf4IRa6Z0ujZKNPLkVVSaVip6++DiyHj1UBVC1Hz4okIhocjCPC3+BJvWaEPMnJWm/kkp4S4hUhJlJcSrLMXaic6b17KnUik9h7QfumPV9rzPfQzoduGljed9zKqGfNjwB9DODGFrNwsFGdKZyG68uhoBJ5sz++VL+ma7Be/aGiyqSTNCVw4Zy8DsBBfqmK8WjA8CzYzm3OSOVhSno2yXKeQwEvL1fFmeqSi+ISMRYuYiWwkqTodLmRneV6WYAm6e7yZyMv3zgmCJZiF1ErdWV4snF+IFfPyUJXvls6LjckOr7xXlsettKnzy1E3Wn39fXAxZLwa8BWozTmdHpSUSF2qzMPSimxkOuX95H3dLikb5/Ro5VLipdqJzpsLuZMgSZY0/JBMZcnQdI3Oj+2Gz3Q3piYMo8/nIvHxntdoLK7a2JL5xVi7uARVuW71UToxmYHc/EwZmRhTDDo+JTN1Tcf5zxcCX4lTHwTTMxdw4dx/g0ENBaUhSBGJeXXkTT+vxt+lxKUilNcC5hGHmczb8z9qzMX0XgxMk1dq+JwCh+tGHZt7OEtuQkwkSV75zPTrnbRIrul+9XaCOgxBMk43amouRcb0T6PJjz/oINjRqmO/U0bLVet3U2mh0cR/PnR+010b+mdYna7ZxNxiiVkGK1R6ozBxccBGwHx9vZLq+dDvO9dgENc0mWpC08RHQqLmqbTQlCYaj8eQOHtvkB9JTJOXflet5Wpiozwdl/Z3PrSfdCJU8kSWRCL3/OECyZnpMjbt1/51enkl6KavNJRDkp8L5WAyigkTrzNoYku/anJKN5o4eU93EhPJUk8FGB8ijY+E2hAkLvrRhKaNdqM/ykonVpKhJlXtn9NJ58umPUNpP0aaGN+0u34fuVXP2p6gf6Yh3cw2TJI1YeJ1BhKO1vRIRlrb08SniYjERrKkodaX/syVNMrY9HXaX7qGmE6SmgAJTXpEelzpcXDpGqHJl+liOJ2+82VoP7xP90vwStka1MbT0zObMEnWhInXGUg4moxINCQf3mtyo9FkqZaByVX7fyVDkLwpl0bbaTLTcfGqCZBu9KvjJtLD06/2zyvtdRhetR/OaWs7FZ/ca9DP+TK1pj7bMEnWhInXGUgyNCQ0g5yMZq7JV5NfOi5kdz5IbNQ6SWSE0+lUdnq+VEPHp8lYp0eD9zodvNfp1EaTMQ07AMZBslQnKsi/s2vd7Tblxjh4NYwxX0xDUMZsY06SrHFI3Uur+cxMNQRKZSyv6f75VfJ8qF/PaP+/A3Q4pu3VyjgnjSp90+H0UO58nLV7lXGYMHEpwHpJMmOdJvGRDGnHX5XxnhyrSVITHElU29Gkg88k6ZeCJmYaHZ8iXquxTwdJ10jTNGnTXceln1UbnGXMKZJlptHEYySglOUFwHVwPEepf9iPnuEAev0RROP6q6bxJZI/C9RgRvMU2IkA98989SSpYVSmBEITEXUW2LjEHU2w8F5aDsPwp6wjYxOSRknnCM9iYs+eIl2pHez7Sf4atA+FQhjhOVbTioEJEzMKo35Pa6ga+pnu2lCDJLQWahwJY3yYon+2QQbTJEc/FwOUQ/LUV02kjJtETzB9kmq5Gtoz3+lixf/74JKngC9OTdPQVtMxJb1TFBP+AHpGI0I+BhEZGWeA9yzEeHQCNSdbcPfOOvzg8Vr84PlmHO+ZENlxhIJCaENBIalUBRHD31pPxoKoPt6Dbr/cK3p79eDC6Hg4gJNH2tDaN4bdZzrQPGqcnHkhqHcU09/eh0eePoO7HpM0SjqfqOlXxybHIiEM949iQMhUpST1nvz9fVdHD3a3jSEkFcWEiUsBPdy+EMnqEZcmVULVVTFKeRGTTsYGCU5roTMFIx6DbPlTdUK/gzaEvs4mLinJMhMioTDGRPMMCdnwWYNENpWI4NShOhzvF02OxKgMC1QKWghUGfFTf6YeT1cPIzs/C8tK3XAM9eBXTzehNxxF+5k27GoYUyd8cg9PnlzL/VC55i43zwmPTQpACExtDiJurCQSu5jp3to4Wls6gVQaeIJqT3M3DnaNqU2h493d2Fs7gJAE0xVNh5X/iizDY/1CsA0YggNLKnJQZo/ghWeqsbtpHPGJcTyyuw5He4NqExkea65+pSJx+bIy1abmanNyyk5p5ypNTKtEwA1vdEelOiu5N97DhInXBl1vSVbng0SmNVJNaLq+02gy0wSsNdeZJNcLQROpTofaFCeV3rmAS5obU1NJBIdIPjVoGIkJN/DLX4poxS0wMo79xzqwr3kYPdyJXQhkaGgEh+oHcKx9HONxKXAJc+pMN4ZycvHm6xfjPdcuwQe3laIoGkJbzyiOnerEPp50KppmWIbevYNjqKnvR/NIHJm5HrgzpjA+Oo724QCa2gdwqHEQzUMRRKJcdB1FX+8gDtcNoLp9TPz4MRiIIxYcxcGaAbjLCrCkPA8b5/vQIqTbOhJGNORHb59fbRTDohbKlL8WDHZ24/kh7rq0BO++ZjHed/1CbCu0Ybw/hM6+ITxzuhdHm0cw4A+hezyA1vZBnGobRjTDhmK3DHUiQQwNjqN/cBSnG/pxQrTbsYhowTyiOjCGuqYBHJG0dwwEMBKIIW5qviZ+B5CgNDFeiBxJXBokY01o9Hs+qab7nU3oNNHMBaK9ZPvJGpqWBRN93dh9ahgVyypQ4XPQQRVOQjTU9po2/GxXB06OQ+33WQY/fv74Cdy9twsHansQsXmxtNCJZtFWjw9wJ3un+v17aWkBVi/KB0YG8cCuVrzQF0deYSZc/U34yfPNOHpyCN1RP1oODcAhfnvOnMK/7elES0MPHjzQKoQ8hXWLCmAdH8QPHjyCXxzsw8kz7XhCyM2Rn4fyyAgeqhnD8jULsKLACbvDgv66Tgx78jHPOYE9hwfgLMpDnpAj34WVMTTSj4eOD6nNMBziv6QwG0sWlWB+fgZOn27A3fv64Z9yoMoTw68PnMH+w72q4xnq7sTTY8Da7BgefuAYnq4fxN6jndh5rBNTvnwsK7Ojbt9JfOfBRrzQ3IMzxztQ05fAcnn/LLWNwqXVIkxc3kgnyQshnThJsFrrZRi6pbvPFsgtL7WfLL/PzMZ+EemY0RapC4WZEBgewa4jjfj1UdHKevzYsacRDx7qQPNYXB3dYbW5sGBlJe5cU4j33bgMN1basfvpE2iYKsTXPnktvnxNDo7ur8Xuvhi2b12MssFufO6fduKL957Cvbvb0B7JwPzFZbh9XRHu3LYI715XiOhQACf6gbe8dzM+tDEHweEgAtGEaNOj6BhJ4ta3Xo1vvXcxptq7sKepD/v2V6PTVYK//+R2fHiTFw3NYxgOBTHQ2w/flA9Li7KkW7LBk1OIHN8U9ogmHPcU4BbRqBfzQEh5Z27/ZrVaULp0Kf5gnhU//+lT+IP/2IsfPd2EvR1BWL1eXLGqEtctL8Q75D1XZk+i/fQgSresw+feuhTl9ig6/KJVS6fT2jmKAVcp/vwT2/Hx1TYcOtSA6romPHRoDNfcsRn/+kdr4RoRTb8vgJgoGK91rtmEidcKTcpzgVxfDWabYIkZJVldEDxWJCpD97rmfhxvD6BjLIyatkEcbR3DaNSYX+Rv6Wx2K7wOKzI9MgxJTGBgELhqdRWWFGRi2bJ5WJ4TR9dAGKXLluJzH9+MT966GFmxUdz/8GH86321aA9b1C5UHpcdHoe8mt0GX2U+FhS61W5IPCYlgzzkdKBiYREWi1ZaUVQIT0ESnWOD6OxI4MqVVUKmPmxYsQA3zHfBYZlCkNvyiVyXU2QyvDUDOR67kHUYUYsdviyXcaie9PDqnafE2DPxvg9cjb9492rcNs+Dwwdq8U//exCPNQTVrvsueU83T2qQSuDKysbyCi8KU0ebcCtAfvfLyfTi2tWlqCjwYlFlFooScRkpDKGlIBdXLM9DWUkRrt1WgBJq0JwuMDnWxAyC5PpSw28qVMZodW5hLkwXzLgmy4LhcSb55WX4w3dchb9+yyLcsqQAn37nFfjy25ZjXbFLrYMjQUwmpaCEXPhhKpGMIRmxIMftFAdqujZ1TEkkHMXYRAJZ5ZX40/duw799fCv+5m2L4O3swv42P6LiV33YIukIGdqznHDwRM5UmgiLyHL73HDb5PVtDvHHIX4MccbncqgTELjQOcttrP8Tiefylzxw/8tEJIk4BYvhe2rwo114IoyQaOdvuXkT/v3/XIVvfHA9bsqP4fHqHtWxEDzhgcjIcqijlc8H57x86ihqST9fR7yEJM4pj0OdG8WeKcfL46i5ctCEidmDHrHyauJczCjJpg8puJM6N7fOynShMDcTuV6nOniPJwgof1rrtUwiLpThsAv5uifROxZCQpIZC4XRIwQzaQli19PV2N0cwBSJ15uFlWvKsarEholgQpFpXESJbifC+PVTiRUYX0L5qK5CpJqaWC84XeHyTqEvIPFNZSAk8fX7jWVmah0gvZ6VZVGrI2xemxC4aOKS5rNTI0KwFiTReLoRPz7QheGEcchg2bwSbF+Wh2gsjIjEZ2ysaFFKL1OlRSs56sFIr14vSx9MsTo3KhBGgIcrTiXRJ9p0n3gyq7aJ2QTrqp6rNXEuLlmOsADIo76iUtx09SJUZdnU/qIaUkaiVLpl6GzB8fYhDEZdqFrgxam6Vuyu68GuEx0YmcrGhopCxPyD2LG/Gbuq+3C0oR+H6ofQ6/Fh3aJ85OY4UN8/jObBMOIik/O9FovEw3ueNU5ik8jiQkzkLx5mR3urw4eFizwSXxt21fRg94l2HB2IC8HbkJfrg8OWQDDG9YISaDKO0fGYseFwMoL+gSAmxM2AeLBkiJYcx96jTdhxqAuHGwZwWN6hZWwS1ywqRml2JspFQe/uGEWfmn+VsGkdTUISxo7n7LHL3I9VvMQmLSjlBtjhAPYe6cShmg4cODEOf9zwb8LEbEEv8zLxYlzSbodrVT0+H5YtLEK+aGTnFIqQicVmx5KFhRho6sOejgjWbF2KNd4gfr7jNH5TH8WmKxZjw7wC3PSmlbgiM4LfPH4G//bgKfz8RBCbr16BTSUeVM3Lg2PMj6erBzGVmYllRZnIEO3Saneioipfht9WZOdkYVG+V53NxZ63vDAbhb5MrNq0BCtsAdy9swbPN0dRUkQt24q8olxEJ4NoHZyAhUeqjPejs38KWyoL4E4EcehYF7oDCdE6qWvyXaxYuHo5PrMpB02HmvAfksbvPtYGf1El3rquGD6PB2urfGhr6kGj34YlIidTsoIabGZWFhYXeGGz2lFRnqfyiXMoDglTKu9SVFyON28pQPOJJvzwyVYksz2Y77BJV2DChIm5iDlzxhf1QJ58GQkFMRKcgsNpQ36mHRMTIYxHOJy3wevJgM/pEH+iVcqQeTScUCewWmxChDJ0z3I5EY9GMBISDVDYjj88iGfY1bHdyXgUkTDgcNkxmYghZnMgW+IQvRZjgZBSFvt7xzAu5JbjdCLS2457Twxiy7VX4M1lcTz88EmMli7EH11Tge7TJ/Bfx5P4+J1rsSgTGA9OIivbC5fDIr0Wf9NtvFEsLO8iGm9UbKULQVaWC7mSTn6kioQiGI1MwW4VYrba1DlezgwLwqEwIpIGr9hHw5Owi73LloFoJIKIqObx0ARah6LwSafgsEdx6PmTaLWU4RNvW4F8Z8bZE21NmHijgNsa8oyvvfv24S/M02pfGkwINwl2e7wozXOiIJO78FiR48tCZVEWSnMcyPW4lfbLY4Oz83IwrzgbVeJWle9RBMuv+04JX5TtREmOR4XN9zrV6Zo8eylb7LweIbBML3KFbI1TS23I9XmR57Gi5lQ9fvZ4E/ZXd+C5Mz0oyi3H+gKPEHMOtq4rRaRrEPWdQzjYFsLm1QuwVLl5UCyaMImQBKveRV6GGrLLm4USprEkG/NLfJIWB2wZMqyS9HiyMlGW50ZxbhaKcjLhcYhmLwTpkbQVeF1wi1yfaKlep6Hxu9xuZPs8mAoG8avHT+P+kx144XgH9o7asXhjOTJdVpNgTbyhMVcnzOYMyWqQnHg0cIZocyp5ZCwBielFyBAtVvkXgkmbeqBmqOY3xeiJeF6Ne+Oq7Q1YkLS4cM3WJdjqs6K2YwwRXzluu2YhqnJFC5YwJQvKce3CAiSjSXgXzsPGxT5Y1RjAKNpz5aWBKnIK6X44h6rOFUublybS/Zx/T5M/fx7euaUYscEAqnsT2LRtNW5bkgt32vubMGFi7uCyPRL8YkMvQUnGxQhx8sx4B7VT4TkO/7kaYYpbBwincm8Cfcb9pYZKZyIOSaYi8AyrBS51Yq4JE29M6OkCHgn+JXO6YO6CWiK/kDpkeO52ytWmtWBDg+S0gs0h9kJoLhnazwbBEkyL3eGEK/WDBoeQvQkTJuYuzBaaBjWEF/I0ph7m6gyPAR7FQcI1OgITJkwQHJfPtR9EmC30JWCSlwkTcwskzwud2aXXiBszn8bsJ/1qM9swmcSECRNzHvxeQhKl8pNOoDT6sxLJlvf0y3labWYbJsmaMGHiZXGRv42/IkiSPJFBfYhO3WtC5T21WZInr3zWmqz+cROv/OCuzWzDJFkTJky8LNSJHDOAdG2UZKkNnwlNsCR5EifJlFdt+Jw+VUD/+j5d3mxj1kj2bO+YytA3Gl6LdqArnQkTlxqauH5XXKiep2unvE83iYSxkxfJk1MDmkwJytIfe2nP1UDUVDXZanfiDa3Jqt4lzk1RjOFAgmdU/R4wCofnXKUK7DX0XOk9Jnvr10J85/eQXLv6asF49Sm1jPvlQL9GZTSuYmM4mDAxw9B1j79E/F3AsOnthPf6KG+SIq+6zaVrqJpY6U5o8kwnTB2OfrQ/Tca8ajLWpDubuKQpUL+/D0cwFpbMjkUQGIkiFBeC+x2Jg/MyJB8eIR7joYKS2fFUT/hqwD1neWy33z+BifgUplKF9ErgAY30Gpe083gLg+gNea8G/DGDVBOMD41LvCIvta/shcDKRN/jo36Mhnnu2e+WVyZMvFb8viSlw+u5U9ZlEqiq06l7GvqhVmrs5DV9jDivJEz6UW07JYdXbcgBlKWVFS2beJU0MOOYUZLVL0swEzKEnA6/cBL1ozEER3vw2I46DPFkBL1pquBFBMlnMen2vKdJxiPo6hlCx3AUk7EQ2v7/9s40Ns7jvOP/vQ/ucnksKZKSeOigSDGRrIMW46g+JMdWjCSO4yCIY7Sogbho0wL+UrjOh34Oko8BiqZBXcco3KJ1LNuSZcm0YsuSItmyJJKieJmkeCxXIrkX97643D7P7A65YiSFbrgmY8xPGryzc+/MvP953pfvvuPywB1IUr35hIvk8hYOAIdlNRmkIyFcODuEiWDqtjpYBJnbwrhOEnMN0hgfGceQK0YCH4Nr0o2R2cRdNzO8U9ujvmm8froHfdOxey8yNMk0mgUMXuvHe5dvIppRv+5SfHGwwP1/4DmeMz7ovCexlOcdCyOLqRRP6SSsr5x+uWM4nbxFIPPIcqUVy/VyWIIMunT+inmtKarIMvyl2fJLkrUZCPrhHk9Br80i5A/BZdWLN0/l+0cMSJrSRmNxhCJRxOJxxJNJJPOrF38Ocni+A6MBD944egVdngQCM9N441g3er1JKiNJFmoacbKag9EYIjH6TOVyGO9KG4vFEI4kxJu5xidGMTCng91MqyGVy+WHqX6+N8TtYSszmUiK8BDF89bc0cAtnD7ah+veFFLJKE6/040zNwKI8zbk1K7FeqntfDtEPEpCZcREWxK0IEQxcGUUw6YybK403nMQeM8w/teyrQ4zA2O47A5gnrcrVyjWGdKA4HOVxY39LIbyyGJZKKh8fsk8d3IMC6b8zH7pWGj14sVPJlEuiyyHk9zmj0xWtGWtKdputR0dHWK3Wu6ANIla78A4jn5yA+cHIpglC5S37u7PlmDrpnJstvO9Fi1dRqcR8Xpw4pwLn0z44fNF4ZlbgL3cjEzAj7OXXTjT78VUOIvqDSbMDI7jP8/fhNdght7vw8luD3yGEuxuKoM+FsCH3S58cN2Dsbk0Sm0WmJNhXL/hRn+/B32+eVQ4zPC5JjHkqEHHBi16P51CZ58H1ybCKK2yodykIeGN4+Inozjd58WAO4GqGjP8wy68ccaNUZMZxvgctYss2YwZLQ1lsKUj+P2VMVHvhD8FR4UVxsQc+q+68emkD70307AbIzhzeQatbdtwYLMdOn6JjFxplsGTh7QberMJU+5JuCJm7GosB110iZfjKBRrCYsfz1EpmCxw0qrkc5/Dc8LK4rgkrCx+woghMb6T47i7uUIx5aq4PLlb7cGDX4fD4ciLsF7E8XEt+UIsWe5sfn9qkEQzVmODiSwxvyeDMgtfRlDHUaciS50bD+Hsh/34eDyISDiAD0524TcfjeEWWcAfnRtBrzuCWCqJ3quDOEWiFeS9sqiT02mydMnizGpo5SJFSoRDuHR5FL8fCyJK1ud4/yhOkahNe+fw9vvdeH8ogATVmUiQRetdwFcqDXD3jeL9a7MIxlMYvzGBk0OziCSCuHKhHxdHqT1kAbuGb+Do+TFM8z5bZIFn6LvN53dY4MFPROZwgRcSV1ik7+/7DMd73JgO+HD0rR50DvgQJot2dsqPqawJ9XU20f4/BlUlNplscdrgm/RgTmydkI9UKNYIKap8lOe5FFhpWXKYFE0+cjg7Fr57ORbmQifDl24VsGizWC9d1XG4rF+KNde/1hStBdzBspN1Zgvu39eMZ/ZU4emHW/GTI1twaFs1nnt4Ow6Q0HDH8Y61sxNudN7M4ttPfAV//602HGiyIEbi63O78c6NCGq3b8Q32jdjR9kCLl/zQFvjxF80luHx/Q04tH8jDjSU4wgdy9MhfNrrR3VtDR7fsxl7q7X48OIw+v0JBOYN2Nq+BT94YDPKNWEMRg3YVq7FrVEvZs02HNzfiL86sgP7akqQIuv47WvTMNXX4PD+TXig2YqBnpsI2qzoqHfgm19txDf2bUJ7gwOH7tuIrYYwzlydRdmmGhxqb8CuKiPO9Yyh1xtFxmDC3t3b8eyDG2GIRFGqs6HOYeKe4iU/12l3gfcY41ci2isdcKciuMWbhCmVVXyB8LnMSLFkJ0WWnRQ3plBs2S80gF+wRCK5EoG9l5Oiy3BZ4tzI+7k93D4+cvuktbzWFFXmZUfPk/U54/GjezQCrzeIrs+m0Rmdh8sTgSeaQoYHan4BHhKjaYcV26stsJpL0NLiQJNBg9BsGH3eMN4jofz1yUH8zpVCijuatEZHZh47LTsSHoM2i3g0iLFJvmwfx793DuLNoSiiC7SyUnP0FSRulVax22siFseE1Qq7pQSNTRWI+afxq/+9ilMDUThNBkT9EYyQO9s1hpdPDeK3PSEkDLwzA3UcD7CslycOlR0PhtA1E8KFy+N45dQATo3EEc/qacAXsMFBdVTaYTHSRCBrmy5mqK25/H8MMYGo8SaLkcpKYnouThObGkGTSaEoJlJEpXgVsvwzi9+SqOasT/azEcXkxHhJeP8Ux2VzueykzhSKvaxfCvJaUjSRXRRYXklIGC5+0odfXvXinQuj+JcTI/h4xIv/OjuCC+6IuF2wQKIhngXV0ABRXs6up87U0AIaDPGmheX40ZFWPP9YK174wQH845OtaHJokeInE0iAqH8FvNFLPBqHzuHAdx9uxvOU5yffa8cvftyOnaUGcZlvpI7PUruCt5LYXlEKOwnt1r1fxUvP3IendpjQf3EIv/yfPlybTmJeZ8b3H23B84+34u+e3Iuf/nAP2mvMYiNGbiRXy46/bSyYBByleOpwC/7msRb8w9P78LOnd2NvpYnWA1oAaNXldLxlucgkWPTcE5o+0AhB5lsifNmVC1coVhsWT2kNsriyRcjnM4sYwyLH/kIBY0FjOK4QKdDsOI73+VttZLuYXB10ruUFWAr8WlJUS5YR713Vm9Cxqx4Hvt6If/7LdvzTQ5vwt4db8fNn9+KbWxxigDSUzuksQZU/jFFfCvFkAkPDcxiZz6LCaYMjQcJiK8HOpko02uiShSxg3lh7XruACFmGOo0OKW1G7NxqK3XArqf0RiN21Fdha4WOyouLnWv5RwdJSp9MBnGDRHYbiaxZk8CtqQAyOjuOPNGOnz7TAFswiITOiFoS8LjRhOZGJ1o36JEJx0kweauYLGJ8Pyirw4JuAQFaICzOUjgNJKdGs0i/tYws1UhSGJy5Z2jZaWE2Ganp9B3YEKBwfvogKf4iy09hJMnlnwekI4fzNuNaqjURTUKjN5MlbqOJRSq7bEIrFH8KLKwshlK0pDCymEqxZDidFNO7WYsyvRRsKX7FpNCKXU8U7SyVA8Wdm6XVy0yCtbvcjuYNFmGRNdSUo7HcAkf+BdhavQ51WzbhO7VavPXudfxH53Wc74vCSiJWv7MBh2s1OPb2Nbxyshf/drwLH/SHAEsprLY0Oi+7MJU2wmBJ4dQlF6KltfhamwUfXujDr9/rw79Svv/+dApxagfXZaQ655Np+OxGlDpMMNHgzIyN4eXXu/Cb3w3jZI8f+h11OHB/I354fwU+OtGLl09co3qv4NhVD2JaB6prdDjbM4bPAkBllR4Xul24aXDiO81WnD/djVc6e/Gr4z040eVBiLTYkN9lgReG6k0ViOuimPBGkE6m4B6fwrnxAIIxEvsJN85PzonHyMbHXLhI/lAshUw6RgvBDGpMNmy26mhREd2rUKwKLIR8zvJRipS0AqUVy+F8PotzukB0l8NlcBxbwOxnZJn8nLnUhkI4nXB5Yf4yUVRTqFBo9VY79jRUkqBlYa2pwrY6O8VTZ/JlBq9AZJlpdDbs6mhCc6kWgZgeTa0ONFiNsNkr8eQTO9BBFulNTwym6no8sr8WzlIjvrZrC5pLdEjrjXjwviY0mbWIas049GAbDjXaMEtCliqtwPcf2IKmqnIc3tWIxhJanWFEa2MN6pwk+jozdu7fio4tJZQ+ioCe0j+0BRvtpeh4qAVPUTleXwxhfSUePbgVTZVW7NzTSFawQdzr3d3WhPspLJa14LHDO/FIgw0zM1FkyzfgoQcasK22Gvs7GrHZoRf3cx3VDlTOpzA5G0dWqxfP7/pISPmWQDKRgj9O5riWrO9EUvizrM4L8xj1J+BsqEIZj9oK7uUqFCtFWppSDKWQsuDxUcaxX4bf7VJcpuGNUTkPp+P8XKaRrgrZz/nZSViQOQ9fwXG6zwOXt54p2h5fL7zwgtjjSw4W34fky17udF7leA8tfshedhCvYHO3pvFOtw9NOzfCqU3i4seD8JQ24MePNoD0Fel5GoT84OnJlOO/LPL9yQwJHe+5xaKdoXp4l1ueKnx7gB/pYsuZt2kRg0tizvtiaXiQ6Ztr2E9HsYcXjTnfSuDnT82G3GQTbecfJJDjckxkBVOniQmS4bIoTJTFd1vpP//QIpPJIpWmSySyXk0GFlaOzf3hTdyPzSTQdbYH76fK8dePNKPaQPlJVPnZVzGpNWyp5v28A4ImA++kC69/dAu7Du/GwTqr+GObQrHa8HyX52ROGnKfeZ7TdFwMl2mWC6KYsyLfH4ofp+V4PkoxlWH8dFHOv/QSmJXAeVlP3nzzzXW7x1dRRPb48eN47rnnUF9ff9uA5TpS/gKEOzEXx2lY5MKzszja2YdLcQMsFDVvs+HZh7djT5WFTG4KuH3MxEDISxY5WHJC8LeSnwUckPfLMI7nfPx56Z5pHkrP29BwmtvhSbAUnmt7Lh+Xyu8lWKwzD8fLsJwfCM3exFuXZrBrXxvuqzPn6uN2yLJkuXTULqTRfakXg8lKPHZgE8rNt7/mTaFYDeQ8lXOv8NzKhYtpehvL5yDnKxTQxfj8XM55cwYEx3EaRt5G4HMrV9fK5zaXdezYMfT29uLFF19EbW3tYrnrgVUX2XfffRevvfaasGItFroUL+hYdvxZHpd3JP/Ff84fxJAnKbbhLnXasVMILOfNJ8oj899J7LiDZX2FyDSy3sJ2LE+/0nD2M8v9kjvFC/gHGf4otCV28aMMRpa73E8e8YKYlMkKZwlZ0vn49Urhd1b8+cDjVjh2LLL8+V6CxfGcdmnesugtnVdUkginmPwxx1L6XDo+jzlsKV+OwiLuNZuGh4dhtVrx0ksvCUtWGnTrgVUX2XPnzuHVV19dfOzj88IDyo9wMeKxLmFhfjkRT7PQGrGSb8hdwr3y59AdyWRSHM1m8+LJtFJ4zqzylFSsEGmcfH5kns9/voscdxnzXBy5fNTdWsZ5eUFoa2sTV9BVVU5hTfO7DdaDRbvqIqtQKBSKJdbPjQuFQqH4EqJEVqFQKIqIElmFQqEoIkpkFQqFoogokVUoFIoiokRWoVAoiogSWYVCoSgiSmQVCoWiiCiRVSgUiiKiRFahUCiKiBJZhUKhKCJKZBUKhaKIKJFVKBSKIqJEVqFQKIqIElmFQqEoIkpkFQqFoogokVUoFIoiokRWoVAoiogSWYVCoSgiSmQVCoWiiCiRVSgUiqIB/B+bO3PWxnUJPwAAAABJRU5ErkJggg==;" parent="1" vertex="1">
                    <mxGeometry x="240" y="123.96000000000001" width="190" height="142.08" as="geometry"/>
                </mxCell>
                <mxCell id="21" value="&lt;p style=&quot;margin:0px;margin-top:4px;text-align:center;&quot;&gt;&lt;b&gt;HZangano&lt;/b&gt;&lt;/p&gt;&lt;hr size=&quot;1&quot;&gt;&lt;div style=&quot;height:2px;&quot;&gt;&lt;/div&gt;" style="verticalAlign=top;align=left;overflow=fill;fontSize=12;fontFamily=Helvetica;html=1;" parent="1" vertex="1">
                    <mxGeometry x="90" y="206.04" width="90" height="60" as="geometry"/>
                </mxCell>
                <mxCell id="22" value="&lt;p style=&quot;margin:0px;margin-top:4px;text-align:center;&quot;&gt;&lt;i&gt;&amp;lt;&amp;lt;Interface&amp;gt;&amp;gt;&lt;/i&gt;&lt;br&gt;&lt;b&gt;IHormiga&lt;/b&gt;&lt;/p&gt;&lt;br&gt;&lt;hr size=&quot;1&quot;&gt;&lt;p style=&quot;margin:0px;margin-left:4px;&quot;&gt;+ nacer(): HLarva&lt;/p&gt;&lt;p style=&quot;margin:0px;margin-left:4px;&quot;&gt;+ crecer(Alimento): Hormiga&lt;/p&gt;&lt;p style=&quot;border-color: var(--border-color); margin: 0px 0px 0px 4px;&quot;&gt;+ morir(): void&lt;/p&gt;&lt;div&gt;&lt;br&gt;&lt;/div&gt;" style="verticalAlign=top;align=left;overflow=fill;fontSize=12;fontFamily=Helvetica;html=1;" parent="1" vertex="1">
                    <mxGeometry x="40" y="383.96" width="160" height="110" as="geometry"/>
                </mxCell>
                <mxCell id="23" value="&lt;p style=&quot;margin:0px;margin-top:4px;text-align:center;&quot;&gt;&lt;b&gt;HLarva&lt;/b&gt;&lt;/p&gt;&lt;hr size=&quot;1&quot;&gt;&lt;p style=&quot;margin:0px;margin-left:4px;&quot;&gt;&lt;/p&gt;&lt;p style=&quot;margin:0px;margin-left:4px;&quot;&gt;&lt;br&gt;&lt;/p&gt;" style="verticalAlign=top;align=left;overflow=fill;fontSize=12;fontFamily=Helvetica;html=1;" parent="1" vertex="1">
                    <mxGeometry x="100" y="128.96000000000004" width="90" height="60" as="geometry"/>
                </mxCell>
                <mxCell id="24" value="&lt;p style=&quot;margin:0px;margin-top:4px;text-align:center;&quot;&gt;&amp;lt;&amp;lt;interface&amp;gt;&amp;gt;&lt;/p&gt;&lt;p style=&quot;margin:0px;margin-top:4px;text-align:center;&quot;&gt;&lt;b&gt;IEntomologo&lt;/b&gt;&lt;/p&gt;&lt;hr size=&quot;1&quot;&gt;&lt;p style=&quot;margin:0px;margin-left:4px;&quot;&gt;&lt;/p&gt;&lt;p style=&quot;margin:0px;margin-left:4px;&quot;&gt;+inyectar(Alimento, Genoalimento): boolean&lt;/p&gt;&lt;p style=&quot;margin:0px;margin-left:4px;&quot;&gt;+entrenar()&lt;/p&gt;" style="verticalAlign=top;align=left;overflow=fill;fontSize=12;fontFamily=Helvetica;html=1;" parent="1" vertex="1">
                    <mxGeometry x="90" y="523.96" width="260" height="80" as="geometry"/>
                </mxCell>
                <mxCell id="25" value="IEntomologo" style="edgeStyle=none;rounded=0;html=1;startArrow=none;startFill=0;endArrow=circle;endFill=0;" parent="1" source="27" edge="1">
                    <mxGeometry x="1" y="11" relative="1" as="geometry">
                        <mxPoint x="420" y="533.96" as="targetPoint"/>
                        <mxPoint x="-6" y="10" as="offset"/>
                    </mxGeometry>
                </mxCell>
                <mxCell id="26" style="edgeStyle=orthogonalEdgeStyle;rounded=0;html=1;startArrow=none;startFill=0;endArrow=halfCircle;endFill=0;" parent="1" edge="1">
                    <mxGeometry relative="1" as="geometry">
                        <mxPoint x="333" y="344.96" as="targetPoint"/>
                        <mxPoint x="368" y="389.96" as="sourcePoint"/>
                    </mxGeometry>
                </mxCell>
                <mxCell id="27" value="&lt;p style=&quot;margin:0px;margin-top:4px;text-align:center;&quot;&gt;&lt;b style=&quot;background-color: initial;&quot;&gt;Entomologo&lt;/b&gt;&lt;br&gt;&lt;/p&gt;&lt;hr size=&quot;1&quot;&gt;&lt;p style=&quot;margin:0px;margin-left:4px;&quot;&gt;-nombre: String&lt;/p&gt;&lt;hr size=&quot;1&quot;&gt;&lt;p style=&quot;margin:0px;margin-left:4px;&quot;&gt;+entrenarHormiga&lt;span style=&quot;background-color: initial;&quot;&gt;(IEntrenar, Hormiga): Type&lt;/span&gt;&lt;/p&gt;" style="verticalAlign=top;align=left;overflow=fill;fontSize=12;fontFamily=Helvetica;html=1;" parent="1" vertex="1">
                    <mxGeometry x="240" y="373.96" width="250" height="100" as="geometry"/>
                </mxCell>
                <mxCell id="28" value="&lt;p style=&quot;margin:0px;margin-top:4px;text-align:center;&quot;&gt;&amp;lt;&amp;lt;interface&amp;gt;&amp;gt;&lt;/p&gt;&lt;p style=&quot;margin:0px;margin-top:4px;text-align:center;&quot;&gt;&lt;b&gt;IEntrenamiento&lt;/b&gt;&lt;/p&gt;&lt;hr size=&quot;1&quot;&gt;&lt;p style=&quot;margin:0px;margin-left:4px;&quot;&gt;&lt;/p&gt;&lt;p style=&quot;margin:0px;margin-left:4px;&quot;&gt;+obeder(): void&lt;/p&gt;" style="verticalAlign=top;align=left;overflow=fill;fontSize=12;fontFamily=Helvetica;html=1;" parent="1" vertex="1">
                    <mxGeometry x="30" y="284.99999999999994" width="160" height="80" as="geometry"/>
                </mxCell>
                <mxCell id="29" value="IHE" style="edgeStyle=none;rounded=0;html=1;startArrow=none;startFill=0;endArrow=circle;endFill=0;" parent="1" source="21" edge="1">
                    <mxGeometry x="0.8796" y="17" relative="1" as="geometry">
                        <mxPoint x="340" y="343.96" as="targetPoint"/>
                        <mxPoint x="416" y="234.96" as="sourcePoint"/>
                        <mxPoint as="offset"/>
                        <Array as="points">
                            <mxPoint x="240" y="283.96"/>
                        </Array>
                    </mxGeometry>
                </mxCell>
                <mxCell id="30" value="&lt;p style=&quot;margin:0px;margin-top:4px;text-align:center;&quot;&gt;&lt;b style=&quot;background-color: initial;&quot;&gt;Hormiguero&lt;/b&gt;&lt;br&gt;&lt;/p&gt;&lt;hr size=&quot;1&quot;&gt;&lt;p style=&quot;margin:0px;margin-left:4px;&quot;&gt;-nombre: String&lt;/p&gt;&lt;hr size=&quot;1&quot;&gt;&lt;p style=&quot;margin:0px;margin-left:4px;&quot;&gt;+iniciar(): void&lt;/p&gt;" style="verticalAlign=top;align=left;overflow=fill;fontSize=12;fontFamily=Helvetica;html=1;" parent="1" vertex="1">
                    <mxGeometry x="510" y="551.46" width="150" height="100" as="geometry"/>
                </mxCell>
                <mxCell id="31" value="ECUANT 2K25" style="shape=umlFrame;whiteSpace=wrap;html=1;width=120;height=30;boundedLbl=1;verticalAlign=middle;align=left;spacingLeft=5;" parent="1" vertex="1">
                    <mxGeometry x="220" y="20" width="850" height="651.46" as="geometry"/>
                </mxCell>
                <mxCell id="51" style="edgeStyle=none;html=1;" parent="1" source="32" target="37" edge="1">
                    <mxGeometry relative="1" as="geometry"/>
                </mxCell>
                <mxCell id="32" value="Persona" style="shape=umlActor;verticalLabelPosition=bottom;verticalAlign=top;html=1;" parent="1" vertex="1">
                    <mxGeometry x="161" y="750" width="30" height="60" as="geometry"/>
                </mxCell>
                <mxCell id="47" style="edgeStyle=none;html=1;" parent="1" source="33" target="39" edge="1">
                    <mxGeometry relative="1" as="geometry"/>
                </mxCell>
                <mxCell id="33" value="Estudiante" style="shape=umlActor;verticalLabelPosition=bottom;verticalAlign=top;html=1;" parent="1" vertex="1">
                    <mxGeometry x="120" y="880" width="30" height="60" as="geometry"/>
                </mxCell>
                <mxCell id="38" style="edgeStyle=none;html=1;" parent="1" source="34" target="37" edge="1">
                    <mxGeometry relative="1" as="geometry"/>
                </mxCell>
                <mxCell id="46" style="edgeStyle=none;html=1;" parent="1" source="34" target="43" edge="1">
                    <mxGeometry relative="1" as="geometry"/>
                </mxCell>
                <mxCell id="34" value="Sistema" style="shape=umlActor;verticalLabelPosition=bottom;verticalAlign=top;html=1;" parent="1" vertex="1">
                    <mxGeometry x="790" y="790" width="30" height="60" as="geometry"/>
                </mxCell>
                <mxCell id="49" value="" style="edgeStyle=none;html=1;" parent="1" source="36" target="42" edge="1">
                    <mxGeometry relative="1" as="geometry"/>
                </mxCell>
                <mxCell id="36" value="Profesor" style="shape=umlActor;verticalLabelPosition=bottom;verticalAlign=top;html=1;" parent="1" vertex="1">
                    <mxGeometry x="170" y="1000" width="30" height="60" as="geometry"/>
                </mxCell>
                <mxCell id="52" style="edgeStyle=none;html=1;entryX=0.422;entryY=0.032;entryDx=0;entryDy=0;entryPerimeter=0;" parent="1" source="37" target="39" edge="1">
                    <mxGeometry relative="1" as="geometry"/>
                </mxCell>
                <mxCell id="53" style="edgeStyle=none;html=1;" parent="1" source="37" target="42" edge="1">
                    <mxGeometry relative="1" as="geometry"/>
                </mxCell>
                <mxCell id="37" value="Ingresar plataforma Policursos" style="ellipse;whiteSpace=wrap;html=1;" parent="1" vertex="1">
                    <mxGeometry x="310" y="740" width="320" height="70" as="geometry"/>
                </mxCell>
                <mxCell id="48" style="edgeStyle=none;html=1;exitX=1;exitY=0.5;exitDx=0;exitDy=0;" parent="1" source="39" target="41" edge="1">
                    <mxGeometry relative="1" as="geometry"/>
                </mxCell>
                <mxCell id="39" value="Inscribirse a un policurso" style="ellipse;whiteSpace=wrap;html=1;" parent="1" vertex="1">
                    <mxGeometry x="280" y="870" width="140" height="70" as="geometry"/>
                </mxCell>
                <mxCell id="41" value="Tomar los cursos" style="ellipse;whiteSpace=wrap;html=1;" parent="1" vertex="1">
                    <mxGeometry x="440" y="875" width="140" height="70" as="geometry"/>
                </mxCell>
                <mxCell id="50" value="" style="edgeStyle=none;html=1;" parent="1" source="42" target="44" edge="1">
                    <mxGeometry relative="1" as="geometry"/>
                </mxCell>
                <mxCell id="42" value="Dictar clases" style="ellipse;whiteSpace=wrap;html=1;" parent="1" vertex="1">
                    <mxGeometry x="280" y="995" width="140" height="70" as="geometry"/>
                </mxCell>
                <mxCell id="43" value="Crear facturas de las matrículas" style="ellipse;whiteSpace=wrap;html=1;" parent="1" vertex="1">
                    <mxGeometry x="605" y="890" width="140" height="70" as="geometry"/>
                </mxCell>
                <mxCell id="44" value="Crear los cursos" style="ellipse;whiteSpace=wrap;html=1;" parent="1" vertex="1">
                    <mxGeometry x="460" y="995" width="140" height="70" as="geometry"/>
                </mxCell>
                <mxCell id="55" value="&lt;abstract&gt;&#10;Persona" style="swimlane;fontStyle=1;align=center;verticalAlign=top;childLayout=stackLayout;horizontal=1;startSize=50;horizontalStack=0;resizeParent=1;resizeParentMax=0;resizeLast=0;collapsible=1;marginBottom=0;" parent="1" vertex="1">
                    <mxGeometry x="1270" y="590" width="260" height="318" as="geometry"/>
                </mxCell>
                <mxCell id="56" value="- rol: String" style="text;strokeColor=none;fillColor=none;align=left;verticalAlign=top;spacingLeft=4;spacingRight=4;overflow=hidden;rotatable=0;points=[[0,0.5],[1,0.5]];portConstraint=eastwest;" parent="55" vertex="1">
                    <mxGeometry y="50" width="260" height="26" as="geometry"/>
                </mxCell>
                <mxCell id="59" value="- sexo: String" style="text;strokeColor=none;fillColor=none;align=left;verticalAlign=top;spacingLeft=4;spacingRight=4;overflow=hidden;rotatable=0;points=[[0,0.5],[1,0.5]];portConstraint=eastwest;" parent="55" vertex="1">
                    <mxGeometry y="76" width="260" height="26" as="geometry"/>
                </mxCell>
                <mxCell id="60" value="- cedula: String" style="text;strokeColor=none;fillColor=none;align=left;verticalAlign=top;spacingLeft=4;spacingRight=4;overflow=hidden;rotatable=0;points=[[0,0.5],[1,0.5]];portConstraint=eastwest;" parent="55" vertex="1">
                    <mxGeometry y="102" width="260" height="26" as="geometry"/>
                </mxCell>
                <mxCell id="61" value="- nombre: String" style="text;strokeColor=none;fillColor=none;align=left;verticalAlign=top;spacingLeft=4;spacingRight=4;overflow=hidden;rotatable=0;points=[[0,0.5],[1,0.5]];portConstraint=eastwest;" parent="55" vertex="1">
                    <mxGeometry y="128" width="260" height="26" as="geometry"/>
                </mxCell>
                <mxCell id="62" value="- apellido: String" style="text;strokeColor=none;fillColor=none;align=left;verticalAlign=top;spacingLeft=4;spacingRight=4;overflow=hidden;rotatable=0;points=[[0,0.5],[1,0.5]];portConstraint=eastwest;" parent="55" vertex="1">
                    <mxGeometry y="154" width="260" height="26" as="geometry"/>
                </mxCell>
                <mxCell id="63" value="- correo: String" style="text;strokeColor=none;fillColor=none;align=left;verticalAlign=top;spacingLeft=4;spacingRight=4;overflow=hidden;rotatable=0;points=[[0,0.5],[1,0.5]];portConstraint=eastwest;" parent="55" vertex="1">
                    <mxGeometry y="180" width="260" height="26" as="geometry"/>
                </mxCell>
                <mxCell id="64" value="- clave: String" style="text;strokeColor=none;fillColor=none;align=left;verticalAlign=top;spacingLeft=4;spacingRight=4;overflow=hidden;rotatable=0;points=[[0,0.5],[1,0.5]];portConstraint=eastwest;" parent="55" vertex="1">
                    <mxGeometry y="206" width="260" height="26" as="geometry"/>
                </mxCell>
                <mxCell id="65" value="- fecha_nacimiento: String" style="text;strokeColor=none;fillColor=none;align=left;verticalAlign=top;spacingLeft=4;spacingRight=4;overflow=hidden;rotatable=0;points=[[0,0.5],[1,0.5]];portConstraint=eastwest;" parent="55" vertex="1">
                    <mxGeometry y="232" width="260" height="26" as="geometry"/>
                </mxCell>
                <mxCell id="66" value="- pais: String" style="text;strokeColor=none;fillColor=none;align=left;verticalAlign=top;spacingLeft=4;spacingRight=4;overflow=hidden;rotatable=0;points=[[0,0.5],[1,0.5]];portConstraint=eastwest;" parent="55" vertex="1">
                    <mxGeometry y="258" width="260" height="26" as="geometry"/>
                </mxCell>
                <mxCell id="57" value="" style="line;strokeWidth=1;fillColor=none;align=left;verticalAlign=middle;spacingTop=-1;spacingLeft=3;spacingRight=3;rotatable=0;labelPosition=right;points=[];portConstraint=eastwest;strokeColor=inherit;" parent="55" vertex="1">
                    <mxGeometry y="284" width="260" height="8" as="geometry"/>
                </mxCell>
                <mxCell id="58" value="+ ingresar(cedula:String, clave:String): boolean" style="text;strokeColor=none;fillColor=none;align=left;verticalAlign=top;spacingLeft=4;spacingRight=4;overflow=hidden;rotatable=0;points=[[0,0.5],[1,0.5]];portConstraint=eastwest;" parent="55" vertex="1">
                    <mxGeometry y="292" width="260" height="26" as="geometry"/>
                </mxCell>
                <mxCell id="82" style="edgeStyle=none;html=1;entryX=1;entryY=0.5;entryDx=0;entryDy=0;endArrow=block;endFill=0;" parent="1" source="72" target="60" edge="1">
                    <mxGeometry relative="1" as="geometry"/>
                </mxCell>
                <mxCell id="103" style="edgeStyle=none;html=1;entryX=0.008;entryY=0.987;entryDx=0;entryDy=0;entryPerimeter=0;endArrow=classic;endFill=1;" parent="1" source="72" target="109" edge="1">
                    <mxGeometry relative="1" as="geometry"/>
                </mxCell>
                <mxCell id="72" value="Estudiante" style="swimlane;fontStyle=1;align=center;verticalAlign=top;childLayout=stackLayout;horizontal=1;startSize=26;horizontalStack=0;resizeParent=1;resizeParentMax=0;resizeLast=0;collapsible=1;marginBottom=0;" parent="1" vertex="1">
                    <mxGeometry x="1610" y="704" width="200" height="60" as="geometry"/>
                </mxCell>
                <mxCell id="73" value="- nota: double" style="text;strokeColor=none;fillColor=none;align=left;verticalAlign=top;spacingLeft=4;spacingRight=4;overflow=hidden;rotatable=0;points=[[0,0.5],[1,0.5]];portConstraint=eastwest;" parent="72" vertex="1">
                    <mxGeometry y="26" width="200" height="26" as="geometry"/>
                </mxCell>
                <mxCell id="74" value="" style="line;strokeWidth=1;fillColor=none;align=left;verticalAlign=middle;spacingTop=-1;spacingLeft=3;spacingRight=3;rotatable=0;labelPosition=right;points=[];portConstraint=eastwest;strokeColor=inherit;" parent="72" vertex="1">
                    <mxGeometry y="52" width="200" height="8" as="geometry"/>
                </mxCell>
                <mxCell id="83" value="Tutor" style="swimlane;fontStyle=1;align=center;verticalAlign=top;childLayout=stackLayout;horizontal=1;startSize=26;horizontalStack=0;resizeParent=1;resizeParentMax=0;resizeLast=0;collapsible=1;marginBottom=0;" parent="1" vertex="1">
                    <mxGeometry x="1640" y="820" width="160" height="60" as="geometry"/>
                </mxCell>
                <mxCell id="85" value="" style="line;strokeWidth=1;fillColor=none;align=left;verticalAlign=middle;spacingTop=-1;spacingLeft=3;spacingRight=3;rotatable=0;labelPosition=right;points=[];portConstraint=eastwest;strokeColor=inherit;" parent="83" vertex="1">
                    <mxGeometry y="26" width="160" height="8" as="geometry"/>
                </mxCell>
                <mxCell id="130" value="+ dictarClase():void" style="text;strokeColor=none;fillColor=none;align=left;verticalAlign=top;spacingLeft=4;spacingRight=4;overflow=hidden;rotatable=0;points=[[0,0.5],[1,0.5]];portConstraint=eastwest;" parent="83" vertex="1">
                    <mxGeometry y="34" width="160" height="26" as="geometry"/>
                </mxCell>
                <mxCell id="87" style="edgeStyle=none;html=1;entryX=1.011;entryY=0.746;entryDx=0;entryDy=0;endArrow=block;endFill=0;exitX=-0.016;exitY=0.135;exitDx=0;exitDy=0;exitPerimeter=0;entryPerimeter=0;" parent="1" source="83" target="61" edge="1">
                    <mxGeometry relative="1" as="geometry">
                        <mxPoint x="1620" y="789" as="sourcePoint"/>
                        <mxPoint x="1530" y="825" as="targetPoint"/>
                    </mxGeometry>
                </mxCell>
                <mxCell id="88" value="Curso" style="swimlane;fontStyle=1;align=center;verticalAlign=top;childLayout=stackLayout;horizontal=1;startSize=26;horizontalStack=0;resizeParent=1;resizeParentMax=0;resizeLast=0;collapsible=1;marginBottom=0;" parent="1" vertex="1">
                    <mxGeometry x="1610" y="483.96" width="250" height="112" as="geometry"/>
                </mxCell>
                <mxCell id="89" value="-nombre: String" style="text;strokeColor=none;fillColor=none;align=left;verticalAlign=top;spacingLeft=4;spacingRight=4;overflow=hidden;rotatable=0;points=[[0,0.5],[1,0.5]];portConstraint=eastwest;" parent="88" vertex="1">
                    <mxGeometry y="26" width="250" height="26" as="geometry"/>
                </mxCell>
                <mxCell id="116" value="-categoria: String" style="text;strokeColor=none;fillColor=none;align=left;verticalAlign=top;spacingLeft=4;spacingRight=4;overflow=hidden;rotatable=0;points=[[0,0.5],[1,0.5]];portConstraint=eastwest;" parent="88" vertex="1">
                    <mxGeometry y="52" width="250" height="26" as="geometry"/>
                </mxCell>
                <mxCell id="90" value="" style="line;strokeWidth=1;fillColor=none;align=left;verticalAlign=middle;spacingTop=-1;spacingLeft=3;spacingRight=3;rotatable=0;labelPosition=right;points=[];portConstraint=eastwest;strokeColor=inherit;" parent="88" vertex="1">
                    <mxGeometry y="78" width="250" height="8" as="geometry"/>
                </mxCell>
                <mxCell id="91" value="+ Curso(nombre, list&lt;estudiante&gt;, t: Tutor)" style="text;strokeColor=none;fillColor=none;align=left;verticalAlign=top;spacingLeft=4;spacingRight=4;overflow=hidden;rotatable=0;points=[[0,0.5],[1,0.5]];portConstraint=eastwest;" parent="88" vertex="1">
                    <mxGeometry y="86" width="250" height="26" as="geometry"/>
                </mxCell>
                <mxCell id="99" value="Sistema" style="swimlane;fontStyle=1;align=center;verticalAlign=top;childLayout=stackLayout;horizontal=1;startSize=26;horizontalStack=0;resizeParent=1;resizeParentMax=0;resizeLast=0;collapsible=1;marginBottom=0;" parent="1" vertex="1">
                    <mxGeometry x="1926" y="497.96" width="375" height="164" as="geometry"/>
                </mxCell>
                <mxCell id="100" value="- estudiante: Estudiante" style="text;strokeColor=none;fillColor=none;align=left;verticalAlign=top;spacingLeft=4;spacingRight=4;overflow=hidden;rotatable=0;points=[[0,0.5],[1,0.5]];portConstraint=eastwest;" parent="99" vertex="1">
                    <mxGeometry y="26" width="375" height="26" as="geometry"/>
                </mxCell>
                <mxCell id="109" value="- curso: Curso" style="text;strokeColor=none;fillColor=none;align=left;verticalAlign=top;spacingLeft=4;spacingRight=4;overflow=hidden;rotatable=0;points=[[0,0.5],[1,0.5]];portConstraint=eastwest;" parent="99" vertex="1">
                    <mxGeometry y="52" width="375" height="26" as="geometry"/>
                </mxCell>
                <mxCell id="101" value="" style="line;strokeWidth=1;fillColor=none;align=left;verticalAlign=middle;spacingTop=-1;spacingLeft=3;spacingRight=3;rotatable=0;labelPosition=right;points=[];portConstraint=eastwest;strokeColor=inherit;" parent="99" vertex="1">
                    <mxGeometry y="78" width="375" height="8" as="geometry"/>
                </mxCell>
                <mxCell id="106" value="+ validarCredenciales(cedula:String, clave:String): boolean" style="text;strokeColor=none;fillColor=none;align=left;verticalAlign=top;spacingLeft=4;spacingRight=4;overflow=hidden;rotatable=0;points=[[0,0.5],[1,0.5]];portConstraint=eastwest;" parent="99" vertex="1">
                    <mxGeometry y="86" width="375" height="26" as="geometry"/>
                </mxCell>
                <mxCell id="107" value="+ crearCertificadoAprob(estudiante, estudiante.nota): Void" style="text;strokeColor=none;fillColor=none;align=left;verticalAlign=top;spacingLeft=4;spacingRight=4;overflow=hidden;rotatable=0;points=[[0,0.5],[1,0.5]];portConstraint=eastwest;" parent="99" vertex="1">
                    <mxGeometry y="112" width="375" height="26" as="geometry"/>
                </mxCell>
                <mxCell id="121" value="+ crearCurso( c: Curso,list&lt;estudiante&gt; t:Tutor): Curso " style="text;strokeColor=none;fillColor=none;align=left;verticalAlign=top;spacingLeft=4;spacingRight=4;overflow=hidden;rotatable=0;points=[[0,0.5],[1,0.5]];portConstraint=eastwest;" parent="99" vertex="1">
                    <mxGeometry y="138" width="375" height="26" as="geometry"/>
                </mxCell>
                <mxCell id="104" style="edgeStyle=orthogonalEdgeStyle;html=1;endArrow=classic;endFill=1;entryX=0.004;entryY=-0.048;entryDx=0;entryDy=0;entryPerimeter=0;rounded=0;" parent="1" source="89" target="100" edge="1">
                    <mxGeometry relative="1" as="geometry"/>
                </mxCell>
                <mxCell id="115" style="edgeStyle=none;html=1;entryX=0.999;entryY=0.808;entryDx=0;entryDy=0;entryPerimeter=0;endArrow=block;endFill=0;dashed=1;dashPattern=8 8;" parent="1" source="111" target="73" edge="1">
                    <mxGeometry relative="1" as="geometry"/>
                </mxCell>
                <mxCell id="111" value="&lt;&lt;Interface&gt;&gt;&#10;IEstudiante&#10;" style="swimlane;fontStyle=1;align=center;verticalAlign=top;childLayout=stackLayout;horizontal=1;startSize=44;horizontalStack=0;resizeParent=1;resizeParentMax=0;resizeLast=0;collapsible=1;marginBottom=0;" parent="1" vertex="1">
                    <mxGeometry x="1920" y="790" width="230" height="130" as="geometry"/>
                </mxCell>
                <mxCell id="113" value="" style="line;strokeWidth=1;fillColor=none;align=left;verticalAlign=middle;spacingTop=-1;spacingLeft=3;spacingRight=3;rotatable=0;labelPosition=right;points=[];portConstraint=eastwest;strokeColor=inherit;" parent="111" vertex="1">
                    <mxGeometry y="44" width="230" height="8" as="geometry"/>
                </mxCell>
                <mxCell id="94" value="- inscribirCurso(Curso): Boolean" style="text;strokeColor=none;fillColor=none;align=left;verticalAlign=top;spacingLeft=4;spacingRight=4;overflow=hidden;rotatable=0;points=[[0,0.5],[1,0.5]];portConstraint=eastwest;" parent="111" vertex="1">
                    <mxGeometry y="52" width="230" height="26" as="geometry"/>
                </mxCell>
                <mxCell id="80" value="+ generarFactura(Curso): Void" style="text;strokeColor=none;fillColor=none;align=left;verticalAlign=top;spacingLeft=4;spacingRight=4;overflow=hidden;rotatable=0;points=[[0,0.5],[1,0.5]];portConstraint=eastwest;" parent="111" vertex="1">
                    <mxGeometry y="78" width="230" height="26" as="geometry"/>
                </mxCell>
                <mxCell id="114" value="+ entrarCurso(Curso): Void" style="text;strokeColor=none;fillColor=none;align=left;verticalAlign=top;spacingLeft=4;spacingRight=4;overflow=hidden;rotatable=0;points=[[0,0.5],[1,0.5]];portConstraint=eastwest;" parent="111" vertex="1">
                    <mxGeometry y="104" width="230" height="26" as="geometry"/>
                </mxCell>
                <mxCell id="120" style="edgeStyle=orthogonalEdgeStyle;rounded=0;html=1;endArrow=classic;endFill=1;entryX=0.568;entryY=1.154;entryDx=0;entryDy=0;entryPerimeter=0;" parent="1" target="121" edge="1">
                    <mxGeometry relative="1" as="geometry">
                        <mxPoint x="2090" y="720" as="targetPoint"/>
                        <mxPoint x="1800" y="859" as="sourcePoint"/>
                        <Array as="points">
                            <mxPoint x="1848" y="859"/>
                            <mxPoint x="1848" y="730"/>
                            <mxPoint x="2140" y="730"/>
                            <mxPoint x="2140" y="698"/>
                        </Array>
                    </mxGeometry>
                </mxCell>
                <mxCell id="123" value="&lt;&lt;Interface&gt;&gt;&#10;ITutor&#10;" style="swimlane;fontStyle=1;align=center;verticalAlign=top;childLayout=stackLayout;horizontal=1;startSize=44;horizontalStack=0;resizeParent=1;resizeParentMax=0;resizeLast=0;collapsible=1;marginBottom=0;" parent="1" vertex="1">
                    <mxGeometry x="1880" y="940" width="230" height="78" as="geometry"/>
                </mxCell>
                <mxCell id="124" value="" style="line;strokeWidth=1;fillColor=none;align=left;verticalAlign=middle;spacingTop=-1;spacingLeft=3;spacingRight=3;rotatable=0;labelPosition=right;points=[];portConstraint=eastwest;strokeColor=inherit;" parent="123" vertex="1">
                    <mxGeometry y="44" width="230" height="8" as="geometry"/>
                </mxCell>
                <mxCell id="125" value="- calificar(e:Estudiante): Estudiante.nota" style="text;strokeColor=none;fillColor=none;align=left;verticalAlign=top;spacingLeft=4;spacingRight=4;overflow=hidden;rotatable=0;points=[[0,0.5],[1,0.5]];portConstraint=eastwest;" parent="123" vertex="1">
                    <mxGeometry y="52" width="230" height="26" as="geometry"/>
                </mxCell>
                <mxCell id="128" style="edgeStyle=none;html=1;entryX=1.005;entryY=0.137;entryDx=0;entryDy=0;entryPerimeter=0;endArrow=block;endFill=0;dashed=1;dashPattern=8 8;exitX=0;exitY=0.25;exitDx=0;exitDy=0;" parent="1" source="123" edge="1">
                    <mxGeometry relative="1" as="geometry">
                        <mxPoint x="1930" y="811.8957371225576" as="sourcePoint"/>
                        <mxPoint x="1800.7999999999997" y="857.5620000000001" as="targetPoint"/>
                    </mxGeometry>
                </mxCell>
            </root>
        </mxGraphModel>
    </diagram>
</mxfile>